<svg xmlns="http://www.w3.org/2000/svg" viewBox="0 0 719.42 775.2"><defs><style>.cls-1{fill:#d2e4ff;}.cls-2{fill:#233862;}.cls-3{fill:#ffb27d;}.cls-4{fill:#e8945b;}.cls-5{fill:#f99746;}.cls-6{fill:#ef7e29;}.cls-7{fill:#fff;}.cls-8{fill:#ed975d;}.cls-9{fill:#2b478b;}.cls-10{fill:#1f396d;}.cls-11{fill:#82b378;}.cls-12{fill:#ebf3fa;}</style></defs><title>p1</title><g id="Layer_2" data-name="Layer 2"><g id="Слой_1" data-name="Слой 1"><path class="cls-1" d="M719.42,415.48A360,360,0,0,1,486.94,752q-11,4.17-22.36,7.62-7.4,2.27-14.93,4.2-9.75,2.5-19.73,4.47-2.71.56-5.46,1-8.5,1.56-17.13,2.69-13.44,1.78-27.2,2.55-6.21.36-12.47.49-4,.09-8,.09-13.47,0-26.68-1l-1.6-.12h0l-.49,0a357.59,357.59,0,0,1-181.19-66.48q-6.27-4.5-12.32-9.26-12.81-10.1-24.66-21.3A359.48,359.48,0,0,1,0,415.48C0,216.82,161,55.77,359.71,55.77S719.42,216.82,719.42,415.48Z"/><path class="cls-2" d="M177.82,195.64S250.76,108,289.37,164.08c0,0,28.81,12,39.22,61,10.63,50-22.64,88-39.84,78.65-11-6-19.38,13.28-19.38,13.28Z"/><path class="cls-2" d="M281.4,155.19s9.81-39.22,67.42-27c0,0-27.58-3.47-35.14,7.15,0,0,21.86-10,35.55-1.63s15.94,36.57,13.89,45.15S346,213,335.95,213s-21.86-8.78-21.86-8.78Z"/><path class="cls-3" d="M367.66,775.11q-4,.09-8,.09-14.28,0-28.28-1.1h0a357.59,357.59,0,0,1-181.68-66.52c6.83-34.83,6.47-60.78,3.5-82.6-3.57-26.24-10.91-46.5-14-69a142.82,142.82,0,0,1-1.2-29.61c1.56-24,9.27-48.61,18.48-70.31a0,0,0,0,1,0,0,387.93,387.93,0,0,1,23.22-45.6c8.07-13.62,14.07-21.95,14.07-21.95h.12l.15,0,5.76-.54,1-.1c3.45-1.81,4.37-16.26,4.33-31.51,0-.89,0-1.78,0-2.68,0-1.78,0-3.57-.08-5.34,0-1.11,0-2.21-.08-3.3,0-.54,0-1.08,0-1.62s0-1.08-.05-1.6c0-.78,0-1.55-.08-2.31q-.07-2-.15-3.81c0-.1,0-.19,0-.28,0-.91-.08-1.8-.12-2.65,0-.58,0-1.14-.08-1.68,0-.87-.09-1.7-.13-2.5,0-.31,0-.61-.05-.91-.14-2.58-.27-4.73-.36-6.28l0-.42c-.1-1.49-.16-2.33-.16-2.33l42-8.32h0l16.16-3.19,3.51-.7,3.67-.73v0c0,3.86.07,7.61.23,11.23,1.63,36.62,11.67,60.5,19.12,66.45a6.64,6.64,0,0,0,2.45,1.35c3.74.77,7.78,2.88,11.94,6.14,28.43,22.27,63,98.41,52.4,169.53A158,158,0,0,1,347.59,591c-1.71,4.71-3.32,9.11-4.84,13.23,0,0,0,0,0,.06-12.11,32.84-18.29,48-18,62.22.48,20.22,14.18,38.38,42.83,102.62A7.82,7.82,0,0,1,367.66,775.11Z"/><path class="cls-4" d="M203.71,318.6s1.4,19.42,1.45,37.71c34.53-1,52.78-32.47,60.25-49.93Z"/><path class="cls-2" d="M271.78,299.67s18.09-28.59,22.44-53c3.1-17.45-5.79-82.14-70.8-72.83a88.32,88.32,0,0,0-36.63,13.85c-14.11,9.53-34.48,30.11-11.71,86.56L181,293.29Z"/><path class="cls-3" d="M192.18,335.93s81.69,1.35,81.74-49.54,10.64-85-41.52-88-62.31,16.39-66.46,33.37S170.93,334.26,192.18,335.93Z"/><path class="cls-2" d="M200.74,202S184,215.33,180,228.28s-5.9,39.63-13.68,38.72c0,0-16.85-40.58,2.09-63.53C188.46,179.14,200.74,202,200.74,202Z"/><path class="cls-3" d="M449.65,763.87a357.93,357.93,0,0,1-42.32,8.2c-21-37.63-42.62-79.25-46.26-96.54-2.31-10.93-7.84-32.4-14.37-56.71-.25-1-.52-1.93-.78-2.91-1-3.86-2.1-7.78-3.17-11.73-.21-.79-.43-1.58-.64-2.37,0,0,0-.05,0-.08-1.85-6.79-3.73-13.66-5.6-20.46l0-.11,0-.1c-11.73-42.69-23-82.55-23-82.55l-6-26.15-12.17-52.72h0l-8.42-36.45,1.67.18c2.69.31,8.44,1,15.64,2.16,13.08,2.08,31,5.62,44.09,10.89l.61.25.16.07.32.13c6.52,2.72,11.72,5.89,14.36,9.54l.06.07a11.16,11.16,0,0,1,1.08,1.84c16.94,37.26,33.86,131.28,45.75,198.35.3,1.67.59,3.32.88,5,6.19,35,10.92,61.7,13.43,67.58C429.13,689.27,438.64,725.9,449.65,763.87Z"/><path class="cls-3" d="M198.8,407l-8.95,47.77L181.94,497,177,523.33S164.47,575.72,153.24,625c-1.31,5.74-2.6,11.43-3.85,17-5.2,23.13-9.7,44-12,56.34q-12.81-10.1-24.66-21.3a357.38,357.38,0,0,1-29.62-31.53l1.35-10.06c3.94-29.31,8.62-63.73,13.91-96.4,6.89-42.59,14.82-82.22,23.52-103.68,1.49-3.66,5.45-7,10.85-10h0c1.3-.71,2.7-1.42,4.16-2.1a137.2,137.2,0,0,1,18.81-6.89c8.22-2.44,16.71-4.43,24-5.93,2.41-.5,4.69-.94,6.76-1.34C193.85,407.71,198.8,407,198.8,407Z"/><path class="cls-5" d="M411.38,611.62c2.25-1,4.53-2.2,6.82-3.46C404.36,540.61,384.68,445.92,365,408.39a11.22,11.22,0,0,0-1.3-1.92l-.06-.07a20,20,0,0,0-3.49-3.11l.19-.24a61.11,61.11,0,0,0-11.38-6.32l-.16-.07-.61-.25c-19.24-8.22-44.08-10.92-44.08-10.92v0c-.06.27-.51,2.25-1.25,5.33-1.56,6.54-4.43,18.07-7.64,28.78h0c-3.36,11.18-7.08,21.46-10.09,24.21-5.35,4.9-63.12,12.06-95.24,10.91-12.09-.44-20.55-2-21.22-5.39-1.37-6.84,8.74-25.31,17.82-40.27,6.46-10.64,12.4-19.51,13.34-21.18a57.57,57.57,0,0,0-5.76.54l-.15,0h-.12c-12.16,1.6-20.73,2.82-26.92,3.87a87.31,87.31,0,0,0-12.08,2.7l-.07,0c-2,.53-48.81,14.39-69.36,130.06,0,0,16.69,22.87,40.19,29.62.62.18,1.24.33,1.87.48h0c-2,33.38-9,77.61-14.63,121.77q11.84,11.21,24.66,21.3,6.06,4.76,12.32,9.26A357.59,357.59,0,0,0,331.42,774.1h0q14,1.09,28.28,1.1,4,0,8-.09,6.27-.13,12.47-.49c-.29-1.31-.58-2.63-.88-4-.6-2.68-1.22-5.41-1.88-8.21-.32-1.4-.65-2.81-1-4.24q-1.19-5-2.43-10.23t-2.55-10.64q-1.7-7-3.46-14.35c-.4-1.67-.8-3.34-1.2-5s-.83-3.46-1.24-5.2c-1.73-7.26-3.47-14.68-5.18-22.2l-.84-3.73q-1.08-4.77-2.13-9.58l-.78-3.59q-.8-3.63-1.55-7.28c-.26-1.22-.52-2.44-.76-3.66-.35-1.69-.7-3.39-1-5.09q-1.56-7.67-3-15.35c-.32-1.75-.64-3.5-1-5.26q-1-5.5-1.89-11c-.2-1.22-.4-2.44-.59-3.66l-.57-3.65.45.12C355.61,621.14,381.26,625.67,411.38,611.62Z"/><path class="cls-6" d="M380.13,774.62q-6.21.36-12.47.49-4,.09-8,.09-14.28,0-28.28-1.1h0q-6.91-7.75-14.29-17.24c-74.39-96.16-6.31-209.16,2.81-211.26,4.54-1.05,11.08,17,16.49,35.46l0,.1,0,.11c2.1,7.14,4,14.33,5.6,20.46,0,0,0,.06,0,.08l.62,2.43c2.16,8.51,3.52,14.46,3.52,14.46l.57,3.65c.19,1.22.39,2.44.59,3.66q.9,5.49,1.89,11c.31,1.76.63,3.51,1,5.26q1.42,7.68,3,15.35c.34,1.7.69,3.4,1,5.09.25,1.22.5,2.44.76,3.66q.75,3.64,1.55,7.28l.78,3.59q1.05,4.82,2.13,9.58l.84,3.73c1.71,7.52,3.45,14.94,5.18,22.2.41,1.74.83,3.48,1.24,5.2s.8,3.36,1.2,5q1.76,7.31,3.46,14.35,1.3,5.41,2.55,10.64t2.43,10.23c.33,1.43.66,2.84,1,4.24.66,2.8,1.28,5.53,1.88,8.21C379.55,772,379.84,773.31,380.13,774.62Z"/><path class="cls-7" d="M168.28,282.23s21.72,5,69.15-5.74l12.7,28.22s-24.65,36.63-62.34,31.22C171.66,333.61,168.28,282.23,168.28,282.23Z"/><polygon class="cls-7" points="237.42 276.49 274.84 253.6 276.65 260.48 237.42 281.31 237.42 276.49"/><path class="cls-7" d="M244.79,300.87c1.11-.2,29.46-31.52,29.46-31.52l-.15,5.14-27.37,33.86Z"/><path class="cls-2" d="M197.64,204s15.94,62.51,59.25,82.53c0,0-43.31-38.41-47-79.67S197.64,204,197.64,204Z"/><path class="cls-2" d="M195.2,197.15s22.37,59.7,56.69,68.52,49.21-.37,49.21-.37-26.33-20.92-31.79-57.42C269.31,207.88,212.07,168.74,195.2,197.15Z"/><path class="cls-3" d="M555.23,527c-62.15,19.61-169.69-33.32-169.69-33.32s57.3-43,54.3-132.43L487.9,400l32.64,26.3s-.13,15.51-3.7,42.69c-.94,7.15-2.11,15.12-3.59,23.83A148.73,148.73,0,0,1,555.23,527Z"/><path class="cls-8" d="M520.54,426.28s-.13,15.51-3.7,42.69c-36.17-6.21-77.2-64.67-77.2-64.67C458.05,399,474.18,398,487.9,400Z"/><path class="cls-3" d="M539.55,424.81s-102.66,17.06-112.3-47S397.87,272.71,463,259.11s81.58,8.94,90,29.55S566,418.72,539.55,424.81Z"/><path class="cls-9" d="M619.88,626c-12.45-50.1-41.09-83.1-67.23-107.37l-21.47-19c-1.77.36-3.56.68-5.35,1-19.88,3.11-40.72,1.22-61.56-9.06-24.59-12.13-51.36-25.21-55.72-22.09-.37.27-.73.55-1.09.83a106.48,106.48,0,0,0-21.62,23.21l-.2.28c-35.72,50.93-53.45,147.35-53.05,254.58,0,3.57.05,7.16.1,10.76q0,1.68.06,3.36v.3q.1,5.73.28,11.49,13.22,1,26.68,1,4,0,8-.09,6.27-.13,12.47-.49,13.74-.75,27.2-2.55,8.62-1.14,17.13-2.69,2.75-.48,5.46-1,10-1.95,19.73-4.47,7.53-1.94,14.93-4.2,11.34-3.44,22.36-7.62A360.18,360.18,0,0,0,626,657.29C624.17,645.51,622.12,635,619.88,626Z"/><path class="cls-7" d="M559.58,360.59s-24.55,5.76-84.15-7.68l-16,35.47s31,46,78.35,39.23C558.08,424.7,559.58,360.59,559.58,360.59Z"/><polygon class="cls-7" points="475.43 352.91 463.3 331.14 457.09 330.52 475.43 358.97 475.43 352.91"/><path class="cls-7" d="M466.17,383.55c-1.39-.25-37-39.6-37-39.6l.19,6.46,34.39,42.55Z"/><path class="cls-9" d="M427.17,371.6s10.54-1.76,8.84-16.27-1.68-33.48,10.12-29.94,12.38,13,17.23,7.46,4.93-28.76,40-30.37,49.37,10.6,65.69,3.42S586.28,274,586.28,274s-4.64,8.82-11.66,11.63c0,0,27.23-37.25-4.3-62.79s-63.68-8.82-81.93-7.72c-40.2,2.43-66.17,4.85-79.31,31.26S401.37,346.17,427.17,371.6Z"/><path class="cls-10" d="M494.54,673.07a0,0,0,0,1,0,0,.35.35,0,0,1,0,.06l0,.12c-.78,3-10.1,39.45-7.53,78.78q-11,4.17-22.36,7.62-7.4,2.27-14.93,4.2-9.75,2.5-19.73,4.47-2.71.56-5.46,1,2.81-7,5.71-13.75v0C448.68,712.66,470.59,678.42,494.54,673.07Z"/><path class="cls-9" d="M370.16,539.14s-17.38,100.58-33.47,199.28v0q-2,12.19-3.94,24.27v0q-.91,5.7-1.82,11.33l.49,0h0l1.6.12q13.22,1,26.68,1,4,0,8-.09,6.27-.13,12.47-.49,13.74-.75,27.2-2.55,8.62-1.14,17.13-2.69,2.75-.48,5.46-1,10-1.95,19.73-4.47,7.53-1.94,14.93-4.2c15.62-45.61,28.83-83.36,29.89-86.4l0-.12a.35.35,0,0,0,0-.06,0,0,0,0,0,0,0Z"/><rect class="cls-11" x="395.98" width="161.28" height="161.28" rx="60.16" ry="60.16"/><path class="cls-12" d="M473,132.85h0c-4.86,1.43-10.18.2-11.81-2.74L425.17,65.05c-1.63-2.94,1-6.52,5.88-8h0c4.86-1.43,10.18-.2,11.81,2.74l36.05,65.06C480.54,127.84,477.89,131.42,473,132.85Z"/><path class="cls-12" d="M467.16,132.71h0c4.92,1.29,10.71-1.21,12.86-5.56l47.72-96.22c2.16-4.35-.1-9-5-10.25h0c-4.92-1.29-10.71,1.21-12.86,5.56l-47.72,96.22C460,126.8,462.25,131.42,467.16,132.71Z"/></g></g></svg>