<svg xmlns="http://www.w3.org/2000/svg" viewBox="0 0 727.23 719.43"><defs><style>.cls-1{fill:#d2e4ff;}.cls-2{fill:#2c3a64;}.cls-3{fill:#ffb27d;}.cls-4{fill:#ed985f;}.cls-5{fill:#f99746;}.cls-6{fill:#f4a36c;}.cls-7{fill:#ef7e29;}.cls-8{fill:#ebf3fa;}</style></defs><title>p2</title><g id="Layer_2" data-name="Layer 2"><g id="Слой_1" data-name="Слой 1"><path class="cls-1" d="M719.42,359.72A359.71,359.71,0,0,1,0,359.72C0,161.05,161.05,0,359.7,0S719.42,161.05,719.42,359.72Z"/><path class="cls-2" d="M274.63,136.16c-2.78-5-34.73-58.32-120.41-18.59,0,0,43.91-16,60.28-1.43,0,0-39.58-8.23-58.88,10.63s-12.43,65.91-5.87,79.21,40.91,49.5,57.32,45.76c6.22-1.42,12.39-5,17.66-8.91a222.35,222.35,0,0,0-1.09,25.92c1.3,86,70.07,135.87,94.75,114,15.83-14,36.75,14.51,36.75,14.51L459.78,164.07S326.49,62.29,274.63,136.16Z"/><path class="cls-3" d="M518.59,620.61c-21.94,15.22-49.44,27.77-84,35.73-129.43,29.9-179-79.49-197.66-154.58,17.65-10.1,34.26-12.33,43.85-13.47,9.35-1.1,19.19-1.84,27.34-2.24,14.53-11.13,36.19-56.69,41-127.43l6.09,1.63,102,27.92s-4.67,32.43-7,63.07c-1.77,24-2,46.9,2.49,52.51,8,1.73,12.74,2.85,12.74,2.85a.26.26,0,0,0,.05.1C466.92,509,496.51,557.62,518.59,620.61Z"/><path class="cls-4" d="M457.23,388.2s-4.69,32.4-7,63.07c-57.79-5.79-84.61-60.81-95.05-91Z"/><path class="cls-3" d="M488.77,399.42s-133.41,32.79-152.55-50.6S287,213.49,371.33,189s108.28,3.55,121.44,29.83S523,388.74,488.77,399.42Z"/><path class="cls-2" d="M478.2,173.39c-26.43-20.36-40.82-11.28-47.86-1.74-82.39-23.52-116,46.74-116,46.74,4.71,61.9-30.62,106-30.62,106s27.85,9.5,80.81-17.82c16.18-8.35,28.73-24.07,38.39-41.86-14.05,43.37-38.77,78-38.77,78,60.12-46.42,65.76-146.07,66.19-156.56,9.85,5.47,29.61,17.74,38.09,32.25C480,238.1,493,281.15,505.41,276.75,505.41,276.75,517.84,203.92,478.2,173.39Z"/><path class="cls-5" d="M518.59,517.28C500,507.38,476,500,449.91,494.62a0,0,0,0,1,0,0h0c-.47,1.18-14.15,34.56-54.39,33.82-38.93-.71-77.43-43.77-81.17-48l-.54,0c-7.5-.56-91.39-6.52-113.38,6.59C171.53,504.19,134,550.5,97.56,606a360.06,360.06,0,0,0,396.53,87.46,359.75,359.75,0,0,0,95.38-57C562.2,574.34,534.16,524,518.59,517.28Z"/><path class="cls-6" d="M630.2,468.23s-57-105.14-71.46-113.83-81.7-17.68-92.89-17.65a13.71,13.71,0,0,0,7.75,11.39c7.71,3.95,37.75,13.23,46.64,15.2S539,383,540.41,388.53s-2.07,28.65,6.34,42.09c5.58,8.92,15.4,9.22,26.43,22.46,5.59,6.71,10.69,20.95,13.81,29.11Z"/><path class="cls-6" d="M553,437s-14.19-7.9-21.73-27.89c-5-13.12-26.76-29.81-26.76-29.81s11.89-4,19.93,3.55,30.74,13.27,30.74,13.27Z"/><path class="cls-6" d="M487.09,350.75l-14.62,13.32a18.42,18.42,0,0,0,14.43.17c7.8-3.21,20.77-11.82,20.77-11.82Z"/><path class="cls-6" d="M501.7,356.21s19.54,10.14,21.22,13.36,10.84,23,10.84,23,9.09,8.92,12.71,4.1-4.23-37.3-8.64-40.39S501.7,356.21,501.7,356.21Z"/><path class="cls-6" d="M670.63,540.72a360.77,360.77,0,0,1-45.55,61.83c-15.77-53.8-31.9-102.12-38.08-120.36l-.1-.27c-1.63-4.81-2.54-7.45-2.54-7.45l45.16-7.5.36-.05Q651.16,504.4,670.63,540.72Z"/><rect class="cls-7" x="571.48" y="118.67" width="155.75" height="155.75" rx="46.33" ry="46.33"/><path class="cls-8" d="M693.63,236.81h0c-4.12,2.67-10.19,2.11-13.48-1.23l-72.79-73.89c-3.29-3.34-2.61-8.25,1.51-10.92h0c4.12-2.67,10.19-2.11,13.48,1.23l72.79,73.89C698.44,229.23,697.76,234.14,693.63,236.81Z"/><path class="cls-8" d="M608.88,236.81h0c4.12,2.67,10.19,2.11,13.48-1.23l72.79-73.89c3.29-3.34,2.61-8.25-1.51-10.92h0c-4.12-2.67-10.19-2.11-13.48,1.23l-72.79,73.89C604.08,229.23,604.76,234.14,608.88,236.81Z"/></g></g></svg>