<svg xmlns="http://www.w3.org/2000/svg" viewBox="0 0 719.42 719.42"><defs><style>.cls-1{fill:#d2e4ff;}.cls-2{fill:#2c3a64;}.cls-3{fill:#ed985f;}.cls-4{fill:#dd8950;}.cls-5{fill:#ffb27d;}</style></defs><title>p4</title><g id="Layer_2" data-name="Layer 2"><g id="Слой_1" data-name="Слой 1"><path class="cls-1" d="M719.42,359.7a361.93,361.93,0,0,1-4.17,54.92s0,0,0,0c-.05.39-.12.8-.19,1.19a360.4,360.4,0,0,1-212.38,274q-12.38,5.39-25.23,9.82-6.95,2.43-14,4.56A359.71,359.71,0,0,1,0,359.7C0,161,161.05,0,359.71,0S719.42,161,719.42,359.7Z"/><path class="cls-2" d="M357.33,80.89c-.62-5.55-9.45-65.15-101-61.39,0,0,45.29,2,54.54,21.11,0,0-32.41-22.08-56.71-12.36S218.56,82.69,219.49,97s18.26,59.55,34.35,62.29c6.1,1,13,.12,19.14-1.42a215.7,215.7,0,0,0-10.61,22.81c-30.78,77.52,12.3,147.77,42.53,137.36,19.39-6.67,25.14,53.74,25.14,53.74l182.8-197.15S431.24,34,357.33,80.89Z"/><path class="cls-3" d="M473.09,591.35c-22.78,12.32-50.64,21.47-84.78,25.44-128,14.95-164.06-95.82-174-170.21,18.1-7.84,34.35-8.21,43.72-8.28,9.14-.06,18.7.29,26.6.77,15.2-9.17,41-50.77,53.17-118.44l5.7,2.23,95.34,37.85s-8,30.76-13.48,60.06c-4.28,22.93-7,45-3.23,50.89,7.49,2.52,12,4.12,12,4.12a.26.26,0,0,0,0,.1A637.09,637.09,0,0,1,473.09,591.35Z"/><path class="cls-4" d="M438.87,360.73s-8,30.73-13.47,60.05c-55.09-11.77-75-67.69-81.87-97.9Z"/><path class="cls-3" d="M451.37,396.32s-131.71-20.19-117.88-102,6.15-139.55,90.83-130.12S520,207.59,522,236,486,399.46,451.37,396.32Z"/><path class="cls-2" d="M525.88,189.88c-16.11-28.06-32.38-25.27-42.23-19.34-65.07-51.69-121.26-1.21-121.26-1.21C343.61,226.54,295.56,253,295.56,253s21.42,18.86,79,14.06c17.6-1.47,34.69-10.89,50-23.24-28.71,33.64-63.7,55.44-63.7,55.44C431.95,280,474,192.78,478.31,183.54c6.79,8.56,19.94,26.9,22.14,43,3,21.95-1.35,65.34,11.4,66C511.85,292.59,550,232,525.88,189.88Z"/><path class="cls-2" d="M640.44,326.72,603,443.93s4.73,8.08,16.83,15.22c-36.44,2.76-91.06,6-120,3.13-44.44-4.36-79.35.24-79.35.24a0,0,0,0,1,0,0c-.47.9-17.22,31.83-56.06,26.78-37.45-4.86-69.95-50.48-73.1-55l-.53-.08c-42.43-6.12-58.84-9.61-58.84-9.61s-40.55-9.87-96.72,32c-28,20.88-61.77,53.21-88.51,80.34A360.26,360.26,0,0,0,463.4,704.25q7.1-2.14,14-4.56,12.84-4.43,25.23-9.82l70.17-40.38A359.5,359.5,0,0,0,715.06,415.83l-.47.32c.22-.5.45-1,.66-1.51,0,0,0,0,0,0a361.93,361.93,0,0,0,4.17-54.92C701.43,322.39,640.44,326.72,640.44,326.72Z"/><path class="cls-5" d="M340.58,298.24S232.74,278.5,218.2,283.86s-59.58,48.2-66,56.21a12.56,12.56,0,0,0,12.59,1c7.25-3.24,31.14-19.36,37.66-24.58s24.83-2.12,29.58.07,19.28,17.94,33.71,19.66c9.58,1.14,15.44-5.71,31.24-6,8-.14,21.1,4.41,28.73,6.86Z"/><path class="cls-5" d="M273.94,335.44s-13.8,5.59-32.41-.51c-12.22-4-36.67,2-36.67,2s4-10.77,14-12.19S246,310.39,246,310.39Z"/><path class="cls-5" d="M174.41,332.94l1.11,18.1a16.89,16.89,0,0,0,8.41-10.21c2.19-7.42,3.5-21.63,3.5-21.63Z"/><path class="cls-5" d="M186.7,325.65s18.47-8.13,21.73-7.48,22.69,5.5,22.69,5.5,11.6-1.36,10.23-6.73-29.07-18.42-33.82-17S186.7,325.65,186.7,325.65Z"/><path class="cls-5" d="M682.81,374.49s-17.07,63.93-50.65,70.39c-8.42,1.62-18.21,1.16-29.2-.94-42.46-8.09-103-40.58-172.67-71.37-60.46-26.7-104.58-35.44-104.58-35.44L293.85,290.7c142.26,16.64,277.69,24.74,346.59,36C687.49,334.43,682.81,374.49,682.81,374.49Z"/></g></g></svg>