<svg xmlns="http://www.w3.org/2000/svg" viewBox="0 0 719.42 736.44"><defs><style>.cls-1{fill:#d2e4ff;}.cls-2{fill:#82b378;}.cls-3{fill:#ebf3fa;}.cls-4{fill:#9fc1f4;}.cls-5{fill:#2b478b;}.cls-6{fill:#a8d29f;}.cls-7{fill:#ed7d2b;}.cls-8{fill:#d3f9ca;}.cls-9{fill:#95c38b;}.cls-10{fill:#f46c0f;}.cls-11{fill:#ff9045;}</style></defs><title>p5</title><g id="Layer_2" data-name="Layer 2"><g id="Слой_1" data-name="Слой 1"><path class="cls-1" d="M719.42,376.72c0,128.33-67.21,241-168.35,304.63q-13.15,8.29-27,15.42a357.55,357.55,0,0,1-148.41,39.31q-7.92.35-15.94.35c-1.64,0-3.28,0-4.9,0q-14.55-.19-28.8-1.53a357.67,357.67,0,0,1-188.2-75C53.9,594,0,491.65,0,376.72,0,178,161,17,359.71,17A359.73,359.73,0,0,1,719.42,376.72Z"/><rect class="cls-2" x="136.17" width="161.28" height="161.28" rx="60.16" ry="60.16"/><path class="cls-3" d="M213.22,132.85h0c-4.86,1.43-10.18.2-11.81-2.74L165.35,65c-1.63-2.94,1-6.52,5.88-8h0c4.86-1.43,10.18-.2,11.81,2.74L219.1,124.9C220.73,127.84,218.08,131.42,213.22,132.85Z"/><path class="cls-3" d="M207.35,132.71h0c4.92,1.29,10.71-1.21,12.86-5.56l47.72-96.22c2.16-4.35-.1-9-5-10.25h0c-4.92-1.29-10.71,1.21-12.86,5.56l-47.72,96.22C200.17,126.8,202.43,131.42,207.35,132.71Z"/><path class="cls-4" d="M607.79,116.25C525,135.76,472.7,203,462,217.92c-1.37,1.88-2.06,2.94-2.06,2.94L392.33,193.4c.69-1.4,1.39-2.81,2.12-4.19,34.77-66.9,101.52-102.83,150.3-121A360.57,360.57,0,0,1,607.79,116.25Z"/><rect class="cls-5" x="415.62" y="170.21" width="15.6" height="79.58" transform="translate(64.53 517.55) rotate(-66.97)"/><path class="cls-3" d="M524.05,696.78a360,360,0,0,1-386.25-36.94L383.75,201.62,457,232.75Z"/><path class="cls-6" d="M241.63,593.22l.79,1.38-1.26-1c-6.84-5.55-40.46-33-75.63-65-48.66-44.32-100.28-97.4-88-113.36,23.21-30.23,84.13,51.49,125.06,114.4C222.75,560.59,238.06,587,241.63,593.22Z"/><path class="cls-6" d="M226.13,504.74c4.79,31.23,8.52,57.69,11,73.38,1.08,6.84,1.92,11.63,2.51,13.88-1.43-3.35-5.24-12.34-10.66-25.14h0c-8.12-19.18-19.82-46.9-32.48-77-30.78-73.24-67.16-160.69-71.06-174-6.88-23.54-6.9-83.15,35.1-58.52C187.82,273.25,211.71,410.62,226.13,504.74Z"/><path class="cls-6" d="M250.7,537.79c-3.55,19.19-6.76,35-8.59,43.71-1,4.79-1.58,7.48-1.58,7.48s-1.11-8-2.56-21c-1.38-12.28-3.07-29-4.44-47.62-4.5-61-5.56-142.24,19.14-153.53C280.84,353.93,263.56,468.25,250.7,537.79Z"/><path class="cls-2" d="M241.63,593.22l-.47.36c-6.84-5.55-40.46-33-75.63-65,9.31,4,24,8,37,1C222.75,560.59,238.06,587,241.63,593.22Z"/><path class="cls-2" d="M226.13,504.74c4.79,31.23,8.52,57.69,11,73.38A117.44,117.44,0,0,1,229,566.86h0c-8.12-19.18-19.82-46.9-32.48-77C204.5,498,215.22,505.87,226.13,504.74Z"/><path class="cls-2" d="M250.7,537.79c-3.55,19.19-6.76,35-8.59,43.71A85.65,85.65,0,0,1,238,568c-1.38-12.28-3.07-29-4.44-47.62C237.43,526,243.81,534,250.7,537.79Z"/><path class="cls-6" d="M239.64,592l.61,1.43C240.1,593.46,239.89,593,239.64,592Z"/><path class="cls-7" d="M326,734.87a357.37,357.37,0,0,1-95.44-22.32c-20.46-50.55-40.5-96.81-29-121.19a49.09,49.09,0,0,1,15-18.13,54.7,54.7,0,0,1,9.69-5.9c.81-.37,1.6-.74,2.42-1.09A59.56,59.56,0,0,1,235,564c.82-.26,1.64-.48,2.48-.68a61.69,61.69,0,0,1,8.64-1.55h0c12.23-1.29,24.2.94,32,6.66,23.56,17.2,20.93,50.82,32.89,100.5C316.36,691.07,321.51,714.07,326,734.87Z"/><path class="cls-6" d="M551.07,681.35q-13.15,8.29-27,15.42a357.55,357.55,0,0,1-148.41,39.31c-20.85-10.34-35.91-26.22-41.66-44.95q-.28-.91-.53-1.83a67.68,67.68,0,0,1-2.53-18.49c.27-24.41,15.15-41.73,34.07-51.84l.06,0c.85-.47,1.72-.9,2.6-1.32h0c2.11-1,4.26-2,6.44-2.84,13.32-5.27,27.7-7.29,40-6.06q.74.07,1.47.07a16.56,16.56,0,0,0,2.27-.16,18.88,18.88,0,0,0,2.32-.47l.42-.12.26-.08c.29-.08.58-.16.88-.27a2.82,2.82,0,0,0,.41-.14c.29-.09.57-.2.87-.32.56-.21,1.13-.44,1.71-.7.3-.14.62-.28.94-.45a4.1,4.1,0,0,0,.47-.21c.91-.45,1.84-.92,2.77-1.45l1-.57c2.69-1.53,5.48-3.32,8.41-5.2l1-.64c3.25-2.08,6.67-4.25,10.29-6.27.49-.28,1-.55,1.49-.82,1.09-.6,2.2-1.17,3.32-1.72.37-.19.76-.37,1.15-.55s.55-.27.83-.39.71-.33,1.08-.49c.66-.29,1.32-.57,2-.85a55.25,55.25,0,0,1,40.3-1.39c24.65,8.26,38.8,34.92,45.26,55.57h0c.11.33.2.66.29,1,.2.66.4,1.31.59,2,.14.49.27,1,.41,1.49s.33,1.24.48,1.86c.48,1.86.9,3.73,1.26,5.59.6,3,1.1,5.93,1.5,8.86.13,1,.26,1.92.37,2.87C550.62,670.65,551,676.29,551.07,681.35Z"/><path class="cls-8" d="M483.65,594.43s23.87-.43,29.71,15.85-10.42,19.81-21.16,14S470.62,598,483.65,594.43Z"/><path class="cls-2" d="M551.07,681.35q-13.15,8.29-27,15.42a357.55,357.55,0,0,1-148.41,39.31q-7.92.35-15.94.35c-1.64,0-3.28,0-4.9,0C344.87,720,337.35,702.58,334,691.14q-.28-.91-.53-1.83a67.68,67.68,0,0,1-2.53-18.49c19.83,16.33,48.93,31.68,89,33.14C508,707.16,545,641.1,545,641.1h0c.11.33.2.66.3,1,.2.66.4,1.31.59,2,.14.49.27,1,.41,1.49s.33,1.24.48,1.86c.47,1.86.89,3.73,1.26,5.59.6,3,1.1,5.93,1.5,8.86.13,1,.26,1.92.37,2.87C550.62,670.65,551,676.29,551.07,681.35Z"/><path class="cls-6" d="M395.42,580c4.64-12.71,19.89-12.6,33.84-17.08s34.26-21.16,34.26-21.16a190.63,190.63,0,0,0-41.69-6C398.35,534.93,395.42,580,395.42,580Z"/><path class="cls-2" d="M395.42,580c2.8-13.85,15.22-30.59,25.4-33.69s42.7-4.55,42.7-4.55a190.63,190.63,0,0,0-41.69-6C398.35,534.93,395.42,580,395.42,580Z"/><path class="cls-2" d="M414.06,608.72c-12.27-1.23-26.65.79-40,6.06,23.49-7.91,52,6.81,56.67-1.4,5-8.81,27.79-25.83,28.67-26.47C440.25,594.76,426.5,610,414.06,608.72Z"/><path class="cls-9" d="M365,619c.7-.3,1.56-.74,2.6-1.32C366.77,618.06,365.91,618.49,365,619Z"/><path class="cls-2" d="M429.12,614h0c-4.62-17.45-20.62-30.73-33.24-38.79-10-6.42-25.23-13.74-32.54-17.15a1.89,1.89,0,0,0-2.57,2.4l1.61,4.22a15.47,15.47,0,0,0,9.24,9.06c13.09,4.68,41.85,17.1,51.26,39C423.94,615.11,430,617.08,429.12,614Z"/><path class="cls-5" d="M365.56,439.2l-2.83-.7c9.38-19.28,26.07-33.94,39.76-41.56a118.64,118.64,0,0,1,25.46-10.67,2.65,2.65,0,0,1,2.46.57l2.61,2.3a2.23,2.23,0,0,1-.85,3.79C419.48,396.6,379.72,410.08,365.56,439.2Z"/><path class="cls-10" d="M315.87,451.28c8.84-35.83,29-30.85,53.93-24.71s45.09,11.12,36.26,47c-6.33,25.68-31.66,41.52-56.56,35.38S309.54,477,315.87,451.28Z"/><path class="cls-11" d="M329.2,442.27c0-6.2,8.89-14,15.1-14s10,6.4,10,12.6-7.65,12.6-13.85,12.6A11.23,11.23,0,0,1,329.2,442.27Z"/></g></g></svg>