<svg xmlns="http://www.w3.org/2000/svg" viewBox="0 0 719.43 719.43"><defs><style>.cls-1{fill:#d2e4ff;}.cls-2{fill:#ef7e29;}.cls-3{fill:#ebf3fa;}.cls-4{fill:#ed975d;}.cls-5{fill:#ffa412;}.cls-6{fill:#ffb27d;}.cls-7{fill:#2b478b;}.cls-8{fill:#ffb93e;}.cls-9{fill:#b5453c;}</style></defs><title>p6</title><g id="Layer_2" data-name="Layer 2"><g id="Слой_1" data-name="Слой 1"><path class="cls-1" d="M719.43,359.72c0,198.66-161.06,359.72-359.72,359.72A358.92,358.92,0,0,1,74,578.25q-6.65-8.69-12.79-17.8A357.5,357.5,0,0,1,31,505.89q-6.13-13.71-11.09-28h0A355.41,355.41,0,0,1,4.29,415.42,361.24,361.24,0,0,1,0,359.72C0,161,161.06,0,359.72,0S719.43,161,719.43,359.72Z"/><rect class="cls-2" x="4.29" y="84.44" width="155.75" height="155.75" rx="46.33" ry="46.33"/><path class="cls-3" d="M126.45,202.58h0c-4.12,2.67-10.19,2.11-13.48-1.23L40.19,127.46c-3.29-3.34-2.61-8.25,1.51-10.92h0c4.12-2.67,10.19-2.11,13.48,1.23L128,191.66C131.26,195,130.58,199.91,126.45,202.58Z"/><path class="cls-3" d="M41.7,202.58h0c4.12,2.67,10.19,2.11,13.48-1.23L128,127.46c3.29-3.34,2.61-8.25-1.51-10.92h0c-4.12-2.67-10.19-2.11-13.48,1.23L40.19,191.66C36.9,195,37.58,199.91,41.7,202.58Z"/><path class="cls-4" d="M448.42,375.92s-7.87-13.91-8.58-27.64,3.33-52.09-5.86-61.54-38.61-33.16-49.84-28.93S407.91,286,408.45,297.3s-.21,12.51-4.45,13-17.32-16.68-17.64-11.42,11.84,34.86,18.31,41S419,391.13,419,391.13Z"/><path class="cls-5" d="M513,581.91C495.69,514.24,465.33,397,455.46,368.14c0,0-9.76-10.56-14.86-12.45-16.29-6-31.74,1.74-31.74,1.74s-.89,44-.87,97.66c-63.84-73.74-150.61-152.59-197.37-100.62-20,22.25-20.46,55.92-2,79.5,42,53.77,137.2,169.19,211.29,210.78h0c10,9,21.6,12.69,33.38,13.08C493.29,659.13,522.93,620.72,513,581.91Z"/><path class="cls-6" d="M158.12,317.81s75.1,101.27,137.28,108.11c0,0-7-36.24-24.73-59.45,5.16-7.84,9.66-15,13.53-21.42,12.84-21.35,18.62-34.17,18.62-34.17l-27.23-52.65-18.48-35.72a181.32,181.32,0,0,1-17.93,34C205.09,306.87,158.12,317.81,158.12,317.81Z"/><path class="cls-4" d="M239.16,256.5s-.74,55.43,45,88.55c12.84-21.35,18.62-34.17,18.62-34.17l-27.23-52.65C252.76,254.21,239.16,256.5,239.16,256.5Z"/><path class="cls-6" d="M320.08,316.94s-96.79-24.76-80.44-84.8S254.51,128.47,317,141.74s68.21,39.44,67.62,60.81S345.68,321.83,320.08,316.94Z"/><path class="cls-7" d="M213.44,127.5c-.8-1.2-2.85-2.34-7.61-3.18a19.38,19.38,0,0,1,9.26-1.48c1.82-6.65,6.81-18.19,18.63-19.72a14.68,14.68,0,0,0-8.24,9.69c15-12.25,44.63-18.89,122.68-3,102.85,20.88,60.46,84.28,46,90.7s-45.6-19.74-70.89-20.75-34.5,35.18-43.61,39.2-4.69-4.5-15.55-11.17-14.29,12.55-12.49,25.53-16,27.67-16,27.67l-13.85-19.39c-13.85-19.39-20-95.18-10.8-110.07C211.81,130.18,212.61,128.84,213.44,127.5Z"/><path class="cls-8" d="M302.81,474.63c-5.8,12-9.81,31.74-12.83,56.1-6.11,49.28-8.13,117.53-12.77,179.19A359.83,359.83,0,0,1,74,578.25q-6.65-8.69-12.79-17.8A357.5,357.5,0,0,1,31,505.89q-6.13-13.71-11.09-28h0c21.86-54.73,55.07-95.12,87.51-124a360.63,360.63,0,0,1,56.1-41c25.27-15,43.3-21.37,44.09-21.65h0s8,30.29,35.83,46.69h0c10.15,6,22.91,10.08,38.89,10.22C282.46,348.17,324.39,430,302.81,474.63Z"/><path class="cls-5" d="M106.79,505.89s-1.13,2.4-3.18,6.79C98.38,523.88,87.23,548,74,578.25q-6.65-8.69-12.79-17.8A357.5,357.5,0,0,1,31,505.89Z"/><path class="cls-8" d="M207.58,291.18s-86.5,9.36-100.72,17.71h0l0,0A63.17,63.17,0,0,0,86,323.37c-20.53,21.53-51.17,54.8-81.73,92a355.45,355.45,0,0,0,15.56,62.43h0q5,14.31,11.09,28a357.5,357.5,0,0,0,30.23,54.56c13.39-14.29,28-30.53,42.43-47.77,34.29-41.05,67.29-87.76,79.26-127.19,0,0,0,0,0,0v0C208.13,352.32,207.58,291.18,207.58,291.18Z"/><path class="cls-3" d="M338,274.25a15.85,15.85,0,0,1-5.26-.41c-3.42-.81-8.46-3.41-12.82-4.41-8-1.82-10.87,4-9.45,9.11s11.63,11.3,21.47,10.57,12.76-9.14,12.76-10.22S346.14,273.42,338,274.25Z"/><path class="cls-9" d="M579.7,199.94c-.78-.22-1.77.83-2.45,2.44L568.73,200a18.27,18.27,0,0,0,.56-10l8.3-.29c.29,1.73,1,3,1.81,2.94,1,0,1.74-2,1.65-4.35s-1-4.26-2-4.23c-.81,0-1.44,1.32-1.61,3.06l-9,.31a18.51,18.51,0,0,0-3.66-5.94l8.22-5.25c1.13,1.34,2.38,2,3.06,1.61.84-.54.48-2.59-.79-4.59s-3-3.18-3.83-2.65c-.68.43-.57,1.87.18,3.45l-8.74,5.59a18.54,18.54,0,0,0-5.38-3.05l3.17-10.07c1.73.3,3.14,0,3.38-.73.3-.95-1.29-2.3-3.55-3s-4.34-.52-4.64.43c-.24.77.77,1.79,2.35,2.53l-3.18,10.11a18,18,0,0,0-6-.29l-4.55-9.86c1.48-.94,2.35-2.08,2-2.81-.42-.9-2.5-.83-4.65.16s-3.56,2.53-3.14,3.44c.34.73,1.77.81,3.45.29l4.29,9.28a18.46,18.46,0,0,0-7.17,3.71l-7.1-8.22c.88-1,1.28-2,.88-2.47s-2-.08-3.36,1.09-2.06,2.59-1.57,3.16,1.46.22,2.57-.51l7.15,8.28a18.58,18.58,0,0,0-3.37,4.86l-9.66-4.56c.53-1.67.46-3.1-.26-3.45-.9-.42-2.45,1-3.46,3.11s-1.1,4.23-.2,4.65c.73.34,1.88-.51,2.83-2l9.8,4.62a18.4,18.4,0,0,0-.78,3.87l-9.93,2.16c-.62-1.74-1.59-2.89-2.41-2.71-1,.22-1.4,2.38-.87,4.82s1.78,4.24,2.79,4c.82-.18,1.22-1.63,1.06-3.47l9.32-2a18.46,18.46,0,0,0,1.55,6.49l-7.73,5.3c-1.17-1.3-2.45-2-3.11-1.51-.82.56-.4,2.61.94,4.56s3.1,3.08,3.92,2.52c.67-.46.5-1.88-.29-3.45l7.49-5.14a18.61,18.61,0,0,0,5.69,5.77l-2.31,8.28c-1.74-.25-3.14.06-3.35.84-.27,1,1.37,2.25,3.65,2.89s4.35.38,4.62-.58c.22-.78-.82-1.77-2.43-2.46l2.15-7.7a18.44,18.44,0,0,0,7.71,1.7c.31,0,.6,0,.91,0l.3,9.15c-1.73.29-3,1-2.95,1.81,0,1,2,1.74,4.35,1.66s4.26-.95,4.23-1.94c0-.81-1.32-1.44-3.06-1.61l-.31-9.36a18.37,18.37,0,0,0,6.27-2.45l5.2,7.54c-1.3,1.18-2,2.45-1.5,3.11.57.82,2.61.39,4.56-1s3.08-3.1,2.51-3.92c-.46-.66-1.88-.5-3.45.3L563,208.31a18.61,18.61,0,0,0,4.69-5.9l8.84,2.45c-.24,1.74.07,3.14.85,3.35,1,.27,2.25-1.37,2.88-3.66S580.66,200.2,579.7,199.94Z"/><path class="cls-9" d="M492.64,265.33c-.55-.15-1.25.59-1.73,1.72l-6-1.67a12.92,12.92,0,0,0,.39-7.07l5.87-.2c.21,1.22.71,2.1,1.28,2.08s1.23-1.4,1.17-3.08-.68-3-1.38-3-1,.93-1.13,2.17l-6.35.22a13.08,13.08,0,0,0-2.59-4.2l5.81-3.71c.8.95,1.68,1.45,2.16,1.14s.34-1.83-.56-3.24-2.11-2.25-2.71-1.87-.4,1.32.13,2.44l-6.18,4a13.11,13.11,0,0,0-3.8-2.16l2.24-7.12c1.22.21,2.22,0,2.39-.52s-.91-1.62-2.51-2.13-3.06-.37-3.28.31.54,1.27,1.66,1.79l-2.25,7.15a12.66,12.66,0,0,0-4.27-.2l-3.22-7c1-.66,1.66-1.47,1.42-2s-1.77-.59-3.29.12-2.52,1.79-2.22,2.43,1.25.58,2.43.21l3,6.56a13.06,13.06,0,0,0-5.07,2.62l-5-5.81c.62-.7.9-1.42.62-1.75s-1.41-.06-2.37.77-1.46,1.83-1.11,2.24,1,.16,1.82-.36l5.05,5.85a13.12,13.12,0,0,0-2.38,3.43l-6.83-3.22c.38-1.18.33-2.19-.19-2.44s-1.73.69-2.45,2.2-.78,3-.14,3.29,1.33-.36,2-1.4L460,257.2a13,13,0,0,0-.55,2.73l-7,1.53c-.44-1.23-1.12-2-1.7-1.92s-1,1.68-.61,3.4,1.26,3,2,2.84.86-1.15.75-2.45l6.59-1.43a13,13,0,0,0,1.1,4.59l-5.46,3.75c-.83-.92-1.73-1.39-2.2-1.07s-.28,1.84.67,3.22,2.19,2.18,2.77,1.78.36-1.33-.2-2.44l5.29-3.63a13.16,13.16,0,0,0,4,4.08L463.77,278c-1.23-.17-2.22,0-2.37.59s1,1.59,2.58,2,3.08.27,3.27-.41-.58-1.25-1.72-1.74l1.52-5.44a13,13,0,0,0,5.45,1.2c.22,0,.43,0,.64,0l.21,6.47c-1.22.2-2.1.71-2.08,1.28s1.4,1.23,3.07,1.17,3-.67,3-1.37-.93-1-2.16-1.14l-.22-6.61a13,13,0,0,0,4.43-1.73l3.67,5.33c-.92.83-1.39,1.73-1.06,2.2s1.84.28,3.22-.67,2.17-2.19,1.78-2.77-1.33-.35-2.44.21l-3.69-5.35a13.15,13.15,0,0,0,3.32-4.17l6.25,1.73c-.17,1.23,0,2.22.6,2.37s1.59-1,2-2.58S493.32,265.52,492.64,265.33Z"/><path class="cls-9" d="M610.92,382.47c-1.1-.3-2.5,1.17-3.47,3.45l-12.05-3.33a25.87,25.87,0,0,0,.79-14.15l11.74-.41c.41,2.45,1.43,4.21,2.57,4.17,1.41,0,2.46-2.81,2.34-6.16s-1.35-6-2.76-6c-1.14,0-2,1.87-2.27,4.33l-12.71.44a26.2,26.2,0,0,0-5.18-8.41L601.54,349c1.6,1.9,3.37,2.89,4.33,2.28,1.19-.76.68-3.66-1.12-6.49s-4.23-4.5-5.42-3.74c-1,.61-.8,2.64.25,4.89l-12.37,7.91a26.21,26.21,0,0,0-7.61-4.32l4.48-14.25c2.44.43,4.44.05,4.78-1,.42-1.34-1.83-3.25-5-4.26s-6.14-.73-6.56.61c-.34,1.09,1.08,2.54,3.33,3.59l-4.5,14.31a25.43,25.43,0,0,0-8.55-.41l-6.44-14c2.1-1.33,3.32-2.95,2.85-4-.59-1.28-3.54-1.18-6.59.23s-5,3.58-4.45,4.86c.48,1,2.51,1.15,4.88.42l6.07,13.13A26.16,26.16,0,0,0,553.71,354l-10-11.63c1.25-1.41,1.81-2.84,1.24-3.5-.7-.81-2.83-.12-4.75,1.55s-2.92,3.67-2.22,4.48c.57.66,2.07.31,3.64-.72l10.12,11.72a26.28,26.28,0,0,0-4.76,6.87l-13.67-6.45c.75-2.36.66-4.39-.38-4.88-1.27-.6-3.47,1.37-4.9,4.4s-1.56,6-.29,6.58c1,.49,2.66-.73,4-2.81l13.86,6.54a26.11,26.11,0,0,0-1.1,5.47l-14.05,3.06c-.88-2.46-2.25-4.09-3.41-3.84-1.43.31-2,3.36-1.23,6.81s2.52,6,3.95,5.69c1.16-.25,1.72-2.31,1.51-4.91l13.19-2.87a26.09,26.09,0,0,0,2.2,9.18l-10.93,7.5c-1.66-1.84-3.46-2.78-4.4-2.14-1.16.8-.56,3.69,1.33,6.45s4.38,4.36,5.54,3.56c.94-.64.71-2.66-.41-4.88l10.6-7.27a26.34,26.34,0,0,0,8,8.16l-3.27,11.71c-2.46-.35-4.44.09-4.75,1.19-.38,1.36,1.93,3.19,5.17,4.09s6.16.53,6.54-.83c.31-1.1-1.16-2.5-3.45-3.47l3-10.9a26.09,26.09,0,0,0,10.91,2.4c.43,0,.85,0,1.28-.07l.42,12.95c-2.45.41-4.21,1.42-4.17,2.56,0,1.41,2.8,2.46,6.16,2.35s6-1.34,6-2.75c0-1.14-1.86-2-4.33-2.28l-.43-13.24a26,26,0,0,0,8.86-3.46l7.36,10.67c-1.84,1.66-2.77,3.47-2.13,4.41.8,1.16,3.69.56,6.45-1.35s4.35-4.39,3.55-5.55c-.65-.94-2.67-.71-4.87.42l-7.38-10.71A26.33,26.33,0,0,0,594,386l12.51,3.46c-.34,2.46.1,4.44,1.2,4.74,1.36.38,3.18-1.94,4.08-5.17S612.27,382.84,610.92,382.47Z"/></g></g></svg>