<svg xmlns="http://www.w3.org/2000/svg" viewBox="0 0 719.43 736.44"><defs><style>.cls-1{fill:#d2e4ff;}.cls-2{fill:#82b378;}.cls-3{fill:#ebf3fa;}.cls-4{fill:#9fc1f4;}.cls-5{fill:#2b478b;}.cls-6{fill:#fff;}.cls-7{fill:#ffc69f;}.cls-8{fill:#ed985f;}.cls-9{fill:#ffb27d;}</style></defs><title>p7</title><g id="Layer_2" data-name="Layer 2"><g id="Слой_1" data-name="Слой 1"><path class="cls-1" d="M719.43,376.72c0,117.84-56.67,222.46-144.25,288.08-.77.57-1.54,1.15-2.33,1.71A358.67,358.67,0,0,1,500,708.06q-5.41,2.28-10.92,4.41-6.93,2.67-14,5.07a357.34,357.34,0,0,1-80.84,17.25q-16.92,1.63-34.28,1.65h-.25C161,736.44,0,575.38,0,376.72S161,17,359.72,17,719.43,178,719.43,376.72Z"/><rect class="cls-2" x="144.47" width="161.28" height="161.28" rx="60.16" ry="60.16"/><path class="cls-3" d="M221.52,132.85h0c-4.86,1.43-10.18.2-11.81-2.74L173.66,65c-1.63-2.94,1-6.52,5.88-8h0c4.86-1.43,10.18-.2,11.81,2.74L227.4,124.9C229,127.84,226.38,131.42,221.52,132.85Z"/><path class="cls-3" d="M215.65,132.71h0c4.92,1.29,10.71-1.21,12.86-5.56l47.72-96.22c2.16-4.35-.1-9-5-10.25h0c-4.92-1.29-10.71,1.21-12.86,5.56l-47.72,96.22C208.48,126.8,210.74,131.42,215.65,132.71Z"/><path class="cls-4" d="M607.07,116.25C524.25,135.76,472,203,461.25,217.92c-1.37,1.88-2.06,2.94-2.06,2.94L391.6,193.4c.69-1.4,1.39-2.81,2.12-4.19,34.77-66.9,101.52-102.83,150.3-121A360.55,360.55,0,0,1,607.07,116.25Z"/><rect class="cls-5" x="414.89" y="170.21" width="15.6" height="79.58" transform="translate(64.09 516.88) rotate(-66.97)"/><path class="cls-3" d="M523.32,696.78a360,360,0,0,1-386.25-36.94L383,201.62l73.23,31.13Z"/><path class="cls-6" d="M551.28,551.07s10.92-14,4.68-35.84a44.23,44.23,0,0,0-25-28.67s15.19-11.9,13.45-20.48-32.94-5.46-32.94-5.46l-3.55-27s-10.74-11.55-21.93,5,0,32,0,32-15-13.87-23.65-8.41c0,0,9-42.91-24-41.35,0,0-6.06-57.31-34.34-50.55,0,0-45.57.4-39.62,30.91s42.72,132.94,42.72,132.94Z"/><path class="cls-7" d="M294.76,410.12h0a8.88,8.88,0,0,1-12.2-2.8l-8.11-14.57c-2.58-4.13-1.91-8.94,2.22-11.52h0c4.13-2.58,8.85-.89,11.44,3.24l9.46,13.45A8.88,8.88,0,0,1,294.76,410.12Z"/><path class="cls-7" d="M265.76,493.88h0a6.46,6.46,0,0,1-9,1.26l-9.3-7.79c-2.83-2.13-3.62-5.57-1.49-8.4h0c2.13-2.83,5.79-2.9,8.61-.77l9.92,6.68A6.46,6.46,0,0,1,265.76,493.88Z"/><path class="cls-7" d="M334.08,366.58h0a9.45,9.45,0,0,1-12.59-4.34l-6.94-16.33c-2.27-4.66-1-9.67,3.64-11.94h0c4.66-2.27,9.47.06,11.74,4.72l8.49,15.3A9.45,9.45,0,0,1,334.08,366.58Z"/><path class="cls-7" d="M389.91,373.15h0A8.15,8.15,0,0,1,379,369.41l-6-14.09c-2-4-.87-8.34,3.14-10.3h0c4-2,8.17.05,10.13,4.07l7.33,13.2A8.15,8.15,0,0,1,389.91,373.15Z"/><path class="cls-8" d="M572.85,666.5A358.67,358.67,0,0,1,500,708.06q-5.41,2.28-10.92,4.41c-15.91-18.33-35.07-34.73-51.64-48.23-2.56-2.09-5.07-4.12-7.49-6-2.83-2.27-5.76-4.73-8.75-7.3h0l-2.62-2.28c-6.6-5.8-13.45-12.18-20.22-18.74-23.47-22.67-46-47.21-53.34-55.7-9.81-11.32-86.14-60.64-95.76-85.3a11,11,0,0,1-.81-6.34c.7-3.09,3-4.32,6.41-4.15,20,.92,78.6,49.33,83.26,48.14,5.45-1.38-16.95-38.68-45.71-87-10.7-18-14.83-30.13-15.44-38.25a26.42,26.42,0,0,1,0-4h0c.82-9.95,8.1-11.85,12.14-11.37a2.92,2.92,0,0,1,.32,0c8.91,1.36,45.43,56.8,63.42,84.9,5.83,9.1,9.71,15.33,10.09,15.93-.32-.85-4.58-12-10.18-26.56-8.67-22.47-20.57-52.93-26.18-65.54-6.66-15-12.86-32.16-9.83-43.6a15.41,15.41,0,0,1,9-10.63c1.65-.74,3.65-.19,5.93,1.42,22,15.44,70.05,129,74.68,130.19,5.13,1.38-15.11-50.61-28.38-87.91-4.42-12.48-5.07-20.87-3.94-26.49l.07-.34a9.94,9.94,0,0,1,12.69-7.36,9.7,9.7,0,0,1,4.73,3.25c30.63,38.18,86.63,144.08,93.21,144.64,7,.6,16.14-1.45,15-35-.7-21.29,9.68-32.72,17.34-38.22.69-.49,1.37-.95,2-1.35a31.16,31.16,0,0,1,5.93-3s1.87,10.58,5.56,31.12c0,.08,0,.18,0,.27q1.77,9.78,4.08,22.55c6.45,35.47,32.23,69.75,20.09,102.84-5.12,13.95-1.11,35.42,5.2,55.61a.35.35,0,0,0,0,.09A343.27,343.27,0,0,0,572.85,666.5Z"/><path class="cls-7" d="M524.18,415.62s2.28,12.1,6.8,35.58a9,9,0,0,1-2.34.44,10.39,10.39,0,0,1-10.92-9.39L517,423.31v0a6.34,6.34,0,0,1,3.49-6A27.72,27.72,0,0,1,524.18,415.62Z"/><path class="cls-6" d="M383.29,486.56s47.06-15,68.13,28.67c0,0,15.6-14.82,28.08,3.9,0,0,25.81-20.28,44.5,0s-2,54.61-24,48.37c0,0,22.42,7.8,13.83,31.21s-37.45,28.09-37.45,28.09-25.75,29.65-51.49,6.24c0,0-18.72,15.6-30.42-2.34S383.29,486.56,383.29,486.56Z"/><path class="cls-6" d="M166.46,516s1.76-26.13,20.49-29.45,0-9.87,0-9.87-33.67-46.51,26.92-65.23,76.58,52.27,76.58,52.27L277,401.23s15.29-1.29,24.65,10.23,7,22.18,7,22.18,15.89-2.28,27.5,5.72S326.41,469,326.41,469s11.26-12.93,26.59,7.66S336,516,336,516L196.31,540Z"/><path class="cls-9" d="M430.94,669.34c-2.63-3.85-6.2-10.88-9.75-18.44h0c-2.9-6.2-5.79-12.78-8.13-18.2a.35.35,0,0,1,0-.09c-6.31-20.19-10.32-41.66-5.2-55.61,12.13-33.09-13.64-67.37-20.09-102.84q-2.3-12.76-4.08-22.55c0-.09,0-.19,0-.27-3.69-20.54-5.56-31.12-5.56-31.12a31.15,31.15,0,0,0-5.93,3c-.63.4-1.31.85-2,1.35-7.35,5.28-17.18,16-17.37,35.59,0,.87,0,1.74,0,2.63.09,2.9.12,5.56.07,8-.51,25.87-8.67,27.54-15.1,27-4.6-.4-33.39-52.32-60.76-96.57-11.76-19-23.25-36.59-32.45-48.07a9.71,9.71,0,0,0-4.73-3.25,9.94,9.94,0,0,0-12.69,7.36l-.07.34c-1.12,5.63-.48,14,3.94,26.49,13.27,37.29,33.5,89.29,28.38,87.91-4.63-1.23-52.63-114.68-74.67-130.18h0c-2.28-1.59-4.28-2.15-5.93-1.42a15.41,15.41,0,0,0-9,10.63c-3,11.45,3.17,28.65,9.83,43.6,9.22,20.77,35.54,89.94,36.36,92.11-1.52-2.45-61.72-99-73.5-100.83a2.91,2.91,0,0,0-.32,0c-4-.48-11.32,1.43-12.13,11.38h0c-.64,8,2.87,21.06,15.45,42.22,28.76,48.34,51.16,85.64,45.71,87-4.66,1.18-63.27-47.22-83.26-48.14-3.43-.16-5.71,1.06-6.41,4.15a11,11,0,0,0,.81,6.34c9.62,24.66,86,74,95.76,85.3,10.74,12.4,53.75,59,84.94,84,2.42,1.93,4.93,4,7.49,6,23.29,19,51.68,43.68,69,71.36.08.28.18.55.27.83H360q17.34,0,34.28-1.65a357.34,357.34,0,0,0,80.84-17.25C460.59,703.14,438.61,680.64,430.94,669.34Z"/><path class="cls-7" d="M147.76,410.12h0a8.88,8.88,0,0,1-12.2-2.8l-8.11-14.57c-2.58-4.13-1.91-8.94,2.22-11.52h0c4.13-2.58,8.85-.89,11.44,3.24l9.46,13.45A8.88,8.88,0,0,1,147.76,410.12Z"/><path class="cls-7" d="M118.77,493.88h0a6.46,6.46,0,0,1-9,1.26l-9.3-7.79c-2.83-2.13-3.62-5.57-1.49-8.4h0c2.13-2.83,5.79-2.9,8.61-.77l9.92,6.68A6.46,6.46,0,0,1,118.77,493.88Z"/><path class="cls-7" d="M187.09,366.58h0a9.45,9.45,0,0,1-12.59-4.34l-6.94-16.33c-2.27-4.66-1-9.67,3.64-11.94h0c4.66-2.27,9.47.06,11.74,4.72l8.49,15.3A9.45,9.45,0,0,1,187.09,366.58Z"/><path class="cls-7" d="M242.91,373.15h0A8.15,8.15,0,0,1,232,369.41l-6-14.09c-2-4-.88-8.34,3.14-10.3h0c4-2,8.17.05,10.13,4.07l7.33,13.2A8.15,8.15,0,0,1,242.91,373.15Z"/><path class="cls-7" d="M377.19,415.62s2.28,12.1,6.8,35.58a8.94,8.94,0,0,1-2.34.44,10.4,10.4,0,0,1-10.92-9.39l-.67-18.94v0a6.34,6.34,0,0,1,3.49-6A27.69,27.69,0,0,1,377.19,415.62Z"/><circle class="cls-6" cx="281.54" cy="307.47" r="19.75"/><circle class="cls-6" cx="225.12" cy="271.34" r="13.16"/><circle class="cls-6" cx="571.86" cy="404.66" r="19.75" transform="translate(116.12 936.7) rotate(-84.7)"/><circle class="cls-6" cx="519.02" cy="363.47" r="13.16" transform="translate(109.16 846.7) rotate(-84.7)"/><circle class="cls-6" cx="272.92" cy="210" r="11.24"/><circle class="cls-8" cx="506.42" cy="531.61" r="12.48"/><circle class="cls-8" cx="462.47" cy="625.65" r="5.19" transform="translate(-209.58 1017.65) rotate(-83.78)"/></g></g></svg>