<?xml version="1.0" encoding="utf-8"?>
<!-- Generator: Adobe Illustrator 21.1.0, SVG Export Plug-In . SVG Version: 6.00 Build 0)  -->
<svg version="1.1" xmlns="http://www.w3.org/2000/svg" xmlns:xlink="http://www.w3.org/1999/xlink" x="0px" y="0px"
	 viewBox="0 0 500 500" style="enable-background:new 0 0 500 500;" xml:space="preserve">
<style type="text/css">
	.st0{fill:#EFFFFF;}
	.st1{fill:#DCF9F8;}
	.st2{opacity:0.3;}
	.st3{fill:#5DB9CE;}
	.st4{fill:#2A96A8;}
	.st5{clip-path:url(#SVGID_2_);}
	.st6{opacity:0.1;fill:#261B74;}
	.st7{opacity:0.1;fill:#FFFFFF;}
	.st8{fill:#F2CADF;}
	.st9{fill:#FFFFFF;}
	.st10{fill:#ACEBF2;}
	.st11{fill:#DE0065;}
	.st12{opacity:0.1;}
	.st13{fill:#261B74;}
	.st14{fill:#E62D8A;}
	.st15{fill:#489FAC;}
	.st16{fill:#8FCE87;}
	.st17{fill:#6F3B20;}
	.st18{fill:#E1F8F9;}
</style>
<g id="BACKGROUND">
</g>
<g id="OBJECTS">
	<g>
		<g>
			<path class="st0" d="M255.4,430.1H32.5c0,0-22.3-50.2,17.8-72.6c40.1-22.4,35.8-63.4,17.9-82.4c-17.9-19-58-91,7.1-122
				s71.2-33.1,98.2-58c27.1-24.9,53.6-14.8,94,0c40.4,14.8,86.4-3.4,126.9,20.4c40.5,23.9,41.9,57.2,14.4,143.2
				c-27.4,86,65.1,86.7,64.8,171.3H255.4"/>
			<path class="st1" d="M254.9,430.1H52c0,0-20.3-46.7,16.2-67.4c36.5-20.8,32.6-58.9,16.3-76.6s-52.8-84.6,6.4-113.4
				s64.8-30.7,89.4-53.9c24.6-23.2,48.8-13.8,85.6,0c36.8,13.8,78.7-3.2,115.6,19s38.1,53.2,13.1,133.1c-25,79.9,59.3,80.6,59,159.3
				H254.9"/>
		</g>
		<g class="st2">
			<polygon class="st3" points="376.4,180.8 372,180.8 372,176.4 367.5,176.4 367.5,180.8 363.1,180.8 363.1,185.3 367.5,185.3
				367.5,189.6 372,189.6 372,185.3 376.4,185.3 			"/>
			<polygon class="st3" points="364.6,130.2 357.9,130.2 357.9,123.5 351,123.5 351,130.2 344.4,130.2 344.4,137 351,137 351,143.7
				357.9,143.7 357.9,137 364.6,137 			"/>
			<polygon class="st3" points="454.8,205.4 448.8,205.4 448.8,199.4 442.6,199.4 442.6,205.4 436.5,205.4 436.5,211.6 442.6,211.6
				442.6,217.7 448.8,217.7 448.8,211.6 454.8,211.6 			"/>
			<polygon class="st3" points="376.4,74.3 372,74.3 372,69.9 367.5,69.9 367.5,74.3 363.1,74.3 363.1,78.8 367.5,78.8 367.5,83.2
				372,83.2 372,78.8 376.4,78.8 			"/>
			<polygon class="st3" points="427.4,131.4 423.1,131.4 423.1,127 418.6,127 418.6,131.4 414.2,131.4 414.2,135.8 418.6,135.8
				418.6,140.2 423.1,140.2 423.1,135.8 427.4,135.8 			"/>
			<g>
				<polygon class="st3" points="123.6,180.8 128,180.8 128,176.4 132.5,176.4 132.5,180.8 136.9,180.8 136.9,185.3 132.5,185.3
					132.5,189.6 128,189.6 128,185.3 123.6,185.3 				"/>
				<polygon class="st3" points="135.4,130.2 142.1,130.2 142.1,123.5 149,123.5 149,130.2 155.6,130.2 155.6,137 149,137
					149,143.7 142.1,143.7 142.1,137 135.4,137 				"/>
				<polygon class="st3" points="45.2,205.4 51.2,205.4 51.2,199.4 57.4,199.4 57.4,205.4 63.5,205.4 63.5,211.6 57.4,211.6
					57.4,217.7 51.2,217.7 51.2,211.6 45.2,211.6 				"/>
				<polygon class="st3" points="123.6,74.3 128,74.3 128,69.9 132.5,69.9 132.5,74.3 136.9,74.3 136.9,78.8 132.5,78.8 132.5,83.2
					128,83.2 128,78.8 123.6,78.8 				"/>
				<polygon class="st3" points="72.6,131.4 76.9,131.4 76.9,127 81.4,127 81.4,131.4 85.8,131.4 85.8,135.8 81.4,135.8 81.4,140.2
					76.9,140.2 76.9,135.8 72.6,135.8 				"/>
			</g>
		</g>
	</g>
	<g>
		<g>
			<path class="st4" d="M166.9,233.8c-6.4-0.2-12.7-1.4-18.7-3.3c0.5-1.4,1.3-4.3,0.9-7c-0.4-3.8-2.1-6-4.3-5.6
				c-2.2,0.6-2.7,3.3-1.5,6.9c0.7,2,2,3.9,3.1,5.1c-3-1.1-5.9-2.3-8.7-3.8c0.6-1.2,2-4.2,2.1-7.1c0.1-3.8-1.2-6.2-3.5-6.2
				c-2.2,0.3-3.2,2.9-2.4,6.6c0.5,2.4,1.8,4.7,2.7,6c-1.1-0.6-2.2-1.2-3.3-1.9c-1.9-1.2-3.8-2.5-5.7-3.9c0.7-1.1,2.5-3.9,2.9-6.9
				c0.5-3.8-0.5-6.3-2.8-6.5c-2.3,0.1-3.5,2.5-3.2,6.3c0.2,2.4,1.2,4.8,2,6.3c-2.3-1.8-4.6-3.7-6.7-5.8c0.8-1,2.7-3.8,3.2-6.8
				c0.7-3.8-0.2-6.3-2.5-6.6c-2.3,0-3.6,2.3-3.5,6.2c0.1,2.3,0.9,4.6,1.6,6.1c-1-1.1-2.1-2.1-3-3.3c-0.4-0.5-0.8-1-1.2-1.5
				c-0.1-1.4-0.6-4.6-2.1-7c-2-3.3-4.4-4.5-6.3-3.3c-1.7,1.5-1.1,4.1,1.5,6.9c1.9,2,4.7,3.3,6.1,3.8c2.1,2.7,4.6,5.2,7.2,7.5
				c-1.5-0.5-4-1.1-6.3-0.9c-3.8,0.3-6,1.9-5.7,4.2c0.6,2.2,3.2,2.8,6.9,1.7c2.8-0.9,5.3-3,6.3-3.9c2.7,2.4,5.5,4.6,8.5,6.5
				c-1.5-0.3-4.4-0.6-7,0.1c-3.7,1-5.6,2.9-4.9,5.1c0.9,2.1,3.7,2.2,7.1,0.5c2.8-1.4,5-4.2,5.7-5.1c2.9,1.9,6,3.6,9.1,5
				c-1-0.2-4.6-0.9-7.8-0.1c-3.7,1-5.6,2.9-4.9,5.1c0.9,2.1,3.7,2.2,7.1,0.5c3.2-1.6,5.6-5,5.9-5.4c1.7,0.8,3.5,1.5,5.2,2.1
				c0.6,0.2,1.1,0.4,1.7,0.6c0.1,0.1,0.2,0.2,0.2,0.2s0,0,0-0.1c1.3,0.4,2.7,0.8,4,1.2c-1.6,0.1-3.5,0.4-5.3,1.1
				c-3.5,1.5-5.1,3.7-4.1,5.8c1.2,1.9,4,1.7,7.1-0.6c2.4-1.7,4.1-4.5,4.7-5.7c4.1,0.9,8.3,1.5,12.5,1.6
				C167.5,234.6,167.5,233.8,166.9,233.8z"/>
			<path class="st4" d="M200.2,248.3c-7.3-4.1-14-9.3-19.8-15.3c1.4-1.4,4.1-4.3,5.4-7.6c1.8-4.7,1.2-8.3-1.7-9.2
				c-2.9-0.6-5.2,2.2-6,7.2c-0.4,2.8,0,5.8,0.5,7.9c-2.8-3-5.4-6.3-7.8-9.7c1.5-1,4.9-3.7,6.8-7.1c2.4-4.4,2.3-8-0.4-9.3
				c-2.8-1-5.5,1.5-6.9,6.3c-0.9,3.1-0.7,6.6-0.5,8.7c-0.9-1.4-1.8-2.8-2.7-4.2c-1.6-2.6-3-5.2-4.3-8c1.5-0.8,5.3-3.1,7.6-6.3
				c2.9-4.1,3.2-7.7,0.7-9.3c-2.7-1.3-5.6,0.8-7.6,5.4c-1.3,2.9-1.5,6.4-1.5,8.5c-1.6-3.5-3.1-7.1-4.3-10.8c1.5-0.7,5.4-2.8,7.9-6
				c3.1-4,3.6-7.5,1.1-9.3c-2.6-1.4-5.6,0.6-7.8,5.1c-1.3,2.7-1.7,6-1.8,8.1c-0.6-1.9-1.1-3.7-1.6-5.6c-0.2-0.8-0.4-1.6-0.6-2.5
				c0.7-1.7,2-5.7,1.8-9.5c-0.3-5-2.4-8-5.4-7.6c-2.9,0.7-3.8,4.2-2.4,9c1,3.5,3.5,6.7,4.8,8.2c0.9,4.5,2.3,8.9,3.8,13.2
				c-1.5-1.5-4-3.7-6.8-4.9c-4.7-1.9-8.2-1.4-9.2,1.4c-0.7,2.9,2.1,5.3,7,6.2c3.8,0.7,8-0.3,9.8-0.8c1.7,4.4,3.7,8.7,6,12.8
				c-1.6-1.2-4.8-3.4-8.2-4.1c-4.9-1.1-8.3,0-8.9,3c-0.2,3,2.9,4.8,8,4.9c4.1,0,8.4-1.9,9.8-2.6c2.3,4,4.8,7.8,7.6,11.4
				c-1.1-0.9-4.9-3.8-9.1-4.8c-4.9-1.1-8.3,0-8.9,3c-0.2,3,2.9,4.8,8,4.9c4.7,0,9.5-2.4,10.2-2.8c1.5,2,3.1,3.8,4.8,5.7
				c0.5,0.6,1.1,1.2,1.7,1.7c0.1,0.2,0.1,0.3,0.1,0.3s0,0,0.1-0.1c1.3,1.3,2.6,2.6,4,3.8c-1.9-0.8-4.3-1.7-6.8-1.9
				c-5-0.4-8.3,1.3-8.3,4.3c0.3,3,3.6,4.4,8.6,3.6c3.9-0.6,7.6-2.8,9-3.8c4.3,3.6,8.8,6.8,13.7,9.5
				C200.2,249.6,200.8,248.7,200.2,248.3z"/>
		</g>
		<path class="st4" d="M338.6,401.5c6.1,1.9,12.5,2.9,18.8,3.1c0-1.5,0.3-4.5,1.5-7c1.7-3.5,4-5,6-3.9c1.9,1.3,1.5,4-0.9,7.1
			c-1.3,1.7-3.2,3-4.6,3.8c3.2,0,6.3-0.2,9.5-0.7c-0.2-1.3-0.5-4.6,0.4-7.5c1.2-3.7,3.3-5.5,5.4-4.7c2,1.1,2,3.8,0.1,7.1
			c-1.3,2.1-3.3,3.8-4.6,4.8c1.3-0.2,2.5-0.4,3.7-0.7c2.2-0.5,4.5-1.1,6.7-1.7c-0.3-1.3-1-4.5-0.4-7.5c0.8-3.8,2.6-5.8,4.8-5.2
			c2.1,0.8,2.5,3.5,0.9,7.1c-1,2.2-2.8,4.2-4,5.3c2.8-0.9,5.6-2,8.2-3.2c-0.4-1.2-1.3-4.5-0.8-7.5c0.6-3.8,2.3-5.9,4.6-5.5
			c2.2,0.7,2.6,3.4,1.2,7c-0.8,2.2-2.4,4.1-3.5,5.2c1.3-0.7,2.7-1.3,4-2.1c0.5-0.3,1.1-0.6,1.7-1c0.6-1.3,2.1-4.1,4.4-6
			c3-2.4,5.7-2.8,7-1c1.1,2-0.3,4.3-3.8,6c-2.5,1.3-5.6,1.5-7.1,1.6c-2.9,1.9-6.1,3.4-9.3,4.7c1.6,0,4.1,0.3,6.3,1.3
			c3.5,1.6,5.1,3.8,4,5.9c-1.3,1.9-4,1.6-7.1-0.7c-2.4-1.8-4-4.6-4.7-5.8c-3.3,1.3-6.8,2.5-10.3,3.3c1.5,0.3,4.4,0.9,6.6,2.4
			c3.2,2.2,4.3,4.7,3,6.5c-1.6,1.6-4.2,0.9-6.9-1.9c-2.2-2.3-3.3-5.6-3.7-6.8c-3.4,0.8-6.8,1.4-10.3,1.7c1,0.1,4.7,0.7,7.4,2.5
			c3.2,2.2,4.3,4.7,3,6.5c-1.6,1.6-4.2,0.9-6.9-1.9c-2.5-2.6-3.6-6.6-3.8-7.1c-1.9,0.2-3.8,0.3-5.7,0.3c-0.6,0-1.2,0-1.8,0
			c-0.2,0.1-0.3,0.1-0.3,0.1s0,0,0-0.1c-1.4,0-2.8-0.1-4.2-0.2c1.4,0.6,3.2,1.5,4.6,2.8c2.8,2.6,3.6,5.2,2,6.8
			c-1.8,1.4-4.3,0.3-6.5-2.9c-1.7-2.4-2.4-5.7-2.6-7c-4.2-0.5-8.4-1.4-12.4-2.7C337.8,402.1,338.1,401.3,338.6,401.5z"/>
	</g>
	<g>
		<g>
			<circle class="st3" cx="173.6" cy="330.2" r="99.6"/>
			<g>
				<g>
					<defs>
						<circle id="SVGID_1_" cx="173.6" cy="330.2" r="99.6"/>
					</defs>
					<clipPath id="SVGID_2_">
						<use xlink:href="#SVGID_1_"  style="overflow:visible;"/>
					</clipPath>
					<g class="st5">
						<path class="st4" d="M99.4,382.6c0,0,0.8,3.8-0.8,5.9c-1.6,2.1-4.5,5.3-3.5,9.8c1,4.6,4.4,12.7,7.2,14.4
							c2.7,1.7,6.3,2.6,5.9,7.3c-0.4,4.6-2.5,15.3-2.8,18.9c-0.3,3.6-3.5,19.4-2.5,26.2c1,6.9,6,9.3,7.6,9c1.6-0.3-1.7-9,0-11.9
							c1.7-2.9,3.3-3.9,4.7-8.5c1.4-4.5,3.8-6.2,6.4-6.9c2.6-0.7,1.9-4.2,4.7-7c2.8-2.7,6.8-7.1,7.1-10.1c0.4-3,1.1-6.5,4.9-6.2
							c3.8,0.3,6.2-2.5,6.8-7.7c0.6-5.2,1.4-7.8,2.7-9.7c1.3-1.9,2.4-4.9-0.8-7.6c-3.2-2.7-7.2-0.9-9.9-3.4
							c-2.7-2.4-5.6-2.7-6.8-2.8c-1.2-0.1,0.5-7.4-3.7-8.5c-4.1-1.1-5.5-1.6-7.1-3.6c-1.6-2-7.2-3.8-10.4-3
							c-3.2,0.8-5.2,1.8-7.8,1.9c-2.6,0.1-3.1-0.8-5.7-0.9c-2.6,0-4.6-1.4-4.3-4c0.4-2.6-1.8-3.6-4.5-4.9c-2.7-1.3-1.6-3.9-4.4-3.2
							c-2.7,0.7-6.6-3.6-6.4-6.2c0.2-2.6,0.2-11.1,5-9.8c4.8,1.3,10.1,2.8,13.1,5c2.9,2.2-0.4-6.2,1.4-7.9c1.8-1.8,7.4-2.7,7.5-5.5
							c0.2-2.7,2-9.2,6.1-11.9c4.1-2.7,8.4-2.7,10.2-4.5c1.9-1.8,6.3-9.3,5.1-12c-1.2-2.7-5.2-8.4-7.1-11.1
							c-1.9-2.7-4.9-0.4-7.5-0.9c-2.6-0.4-2.3-5.1-4.6-5.5c-2.4-0.4-6.1,1.2-6,4c0.1,2.8,2.3,7.5,0.3,9c-2,1.6-3.2,3.7-6.3,0.8
							c-3.1-3-9.2-4.5-10.9-7.4c-1.8-2.9-2.4-6.1,2.2-9.3c4.6-3.2,10.3-7.2,10.3-9.3c0-2.1-2.6-5.2-4.4-4.9
							c-1.8,0.3-1.3,3.7-3.5,3.5c-2.2-0.2-4.3-7.2-6.5-8.2c-2.2-1-0.5,7.5-3.4,8.2c-2.9,0.7-5.8,1.1-10.3,0c-4.5-1.1-5.6-0.6-8.7,0
							c-3.1,0.6-3.7-0.3-7.1-1.7c-3.4-1.4-4.6-2.1-11.3-1.6c-6.8,0.6-10.2,1.9-13.8,0c-3.6-1.9-10.3,0.6-15.2,0.4
							c-4.8-0.2-11.1,3-11.1,7c0,8.7,15.8,11.2,21.2,12.3c5.4,1.1,12,5.7,13.7,10.8c1.8,5.1,7.9,6.4,9,12.3
							c1.1,5.9,1.7,15.8,3.3,18.8c1.7,3,12.6,9.9,14.7,14.8c2.1,4.9,6.8,9.6,10.2,12.5c3.4,2.9,11.3,3.9,14.2,5.9
							C89,375.8,93.2,384.2,99.4,382.6z"/>
						<path class="st4" d="M47.4,265.4c-2.5,0.8-4.1,3.3-3.8,6.1c0.3,2.8,2.7,3.6,4.8,3.3c2.1-0.3,6,0.5,7.1,3
							c1.1,2.5,6,1.5,9.8,1.1c3.8-0.4,7.3-1.5,5.1-3.3c-2.2-1.8-2-4.5-3.5-5.9c-1.4-1.4-2.8,0-5.6,0.4c-2.8,0.3-7-1.4-9.2-2.6
							C49.8,266.2,49.9,264.6,47.4,265.4z"/>
						<path class="st4" d="M51.3,257.7c-2.8,0.8-6.4,3.3-5.4,4.3c0.9,1,5.2,1.8,7.4-1c2.2-2.9,3.8-5.2,2.3-4.4
							C53.9,257.3,51.3,257.7,51.3,257.7z"/>
						<path class="st4" d="M56.1,261.4c-1.1,0.6-3,3.3-0.6,4.3c2.4,1,7.6,1.1,9.5-0.6c1.9-1.7,0.6-4.5-0.8-5.4
							C62.7,258.8,57.1,260.8,56.1,261.4z"/>
						<path class="st4" d="M116.2,241.1c-4-1.2-6.3-2.2-12.2-1.5c-5.9,0.7-12.7,3.8-16.8,4.3c-4.1,0.4-8.2,2.3-9.4,5.1
							c-1.2,2.7,6.7,5.3,8.4,7.4c1.7,2.1,7.9,4.2,11.6,2.6c3.6-1.6,5.1-6.7,8.5-8.7C109.6,248.2,117.5,241.6,116.2,241.1z"/>
						<path class="st4" d="M75,251.8c-2.7-0.8-5.2,0.1-6.4,0.9c-1.2,0.7-0.3,3.9-0.3,5.7c-0.1,1.8-0.7,5.3,0.9,8.2
							c1.7,2.9,1.3,7,4.9,7.1c3.6,0.1,6.6-2.6,9.2-4.2c2.6-1.6,11.1-1.4,12.8-4.2c1.7-2.8-1-2.4-5.5-2.7c-4.5-0.3-7-2.8-9.8-5.5
							C78.1,254.5,76.7,252.3,75,251.8z"/>
						<path class="st4" d="M90.3,269.3c-4.6,0.7-5,3.7-4.3,6.3c0.7,2.6,6.5-1.5,8.4,0c1.8,1.5,5.4,5.1,3.9,8.1c-1.5,3,1.9,5.4,6.2,6
							c4.4,0.6,8.4,2.8,10.5,0c2.1-2.8,2.9-5.8-1.3-8.2c-4.2-2.4-4.4-5.9-6.9-7.8c-2.5-1.9-5.8-5.9-8.8-5.8
							C95.1,268.1,90.3,269.3,90.3,269.3z"/>
						<path class="st4" d="M126.9,242.3c-3.4,1.2-11.6,5.2-12.6,7.6c-1,2.5-5.2,3.1-5.8,5.8c-0.6,2.7,3.4,3,8.8,4.3
							c5.3,1.3,7.3,3.5,7.8,8c0.5,4.5,7.7,5.5,6,10.6c-1.8,5.1-2.9,8-0.9,12.2c2,4.1,7.6,9.2,9.2,8.7c1.6-0.5,4.1-11.8,8.3-14.1
							c4.2-2.3,15.9-6.4,16.5-7.8c0.5-1.4,2.8-17.2,2.3-20.1c-0.4-2.9,7-7.5,7.3-10.9c0.2-3.4-7.9-1.4-11.6-2.1
							c-3.8-0.7-6.9-4.3-12.4-4.7C144.2,239.3,130.5,241,126.9,242.3z"/>
						<path class="st4" d="M188.4,329.4c0,0-6.8-1-7.6,0c-0.8,1-0.5,5.1-1,6.4c-0.5,1.3-0.4,3.9,0.5,4.1c0.9,0.2,2.6,1.8,3.3,1.5
							c0.7-0.3,3.2-1.6,4.6-2c1.4-0.4,1.5-2.5,2.6-4.2c1.1-1.7,1.1-4.8,4.9-6c3.8-1.2,6.3-0.3,7.2,0.7c0.9,1,5.5,3.1,5.5,5.5
							c0,2.4,3-0.7,2.8-1.5c-0.2-0.8-4-4-5.1-5.1c-1.2-1.1-1.5-3.2-0.5-3.6c1-0.3,4.3,4.3,5.2,4.7c0.8,0.4,2.3,1.9,2.1,3.1
							c-0.2,1.2,2,6.7,2.9,6.9c0.9,0.2,2.6-1,2.2-2.1c-0.4-1.1-2-2.9-0.9-3.7c1.1-0.8,4.1-0.2,5.5-1.1c1.4-0.9-0.7-2.1,0.5-4.4
							c1.2-2.3,2-5.6,3.5-5.2c1.5,0.5,1.5,4.8,2.6,4.6c1.1-0.2,4.4-1.8,6.8,0.9c2.4,2.7,1.7,3.6-0.8,4c-2.5,0.3-7.2-0.6-8.4,0.5
							c-1.2,1-5.6,1.7-5.6,2.8c0,1.2,1.1,4.5,2.6,4.2c1.5-0.3,7.5-1.2,8.1-0.8c0.6,0.4-1.5,8.2-3.1,8.5c-1.6,0.3-2.9,0.4-4.4,0.7
							c-1.5,0.3-5.2-0.4-6.8-1.6c-1.6-1.2-4.1,0.1-6.7,1.2c-2.6,1-5.9-1.4-7.1-2.4c-1.2-1,0.2-3.5,0-4.5c-0.2-1.1-4.6-2.5-6.4-1.6
							c-1.8,0.9-7.1,2-8.8,2.4c-1.7,0.4-4.1-0.5-4.4-0.3c-0.4,0.1-1,2.9-2.7,3.6c-1.6,0.7-1.7,3.1-2.6,5.6
							c-0.9,2.5-5.4,6.2-6.1,11.5c-0.6,5.3,0,10.6,2.4,14.9c2.4,4.2,5.7,6,9.8,5.9c4.2-0.1,11.7-1.6,14,0c2.3,1.6,2.6,5.3,1.9,8.1
							c-0.7,2.8,0.7,5,3.3,9.6c2.5,4.6,3.8,6.8,2.3,10.3c-1.5,3.5-1.7,5.5-0.2,9.3c1.5,3.8,1.1,5.3,1.4,8.8
							c0.2,3.5,2.3,11.8,4.8,12.2c2.6,0.4,7.6-2.3,9.6-5.3c2-2.9,5-9,7.3-10.8c2.3-1.8,1.1-6.7,2.4-8.2c1.2-1.5,5.3-4.2,5-8.4
							c-0.3-4.2-1.8-9.7,0-13.3c1.8-3.6,9.1-9.5,10-12.3c0.9-2.8,2.8-6.5,1.1-6.4c-1.7,0.1-3.1,1-6.3,0.7c-3.3-0.3-5.2-7.1-6.2-8.4
							c-1-1.3-4.7-7.9-4.7-9.8c0-1.9-2.7-7.5-1.3-7.6c1.4-0.1,4.8,6.9,5.9,9c1.1,2.1,3.4,6.6,4.2,9.3c0.9,2.7,2.2,3.7,3.5,3.5
							c1.3-0.3,12.3-6.2,13.8-8.2c1.5-2,2.3-5.5,0.7-6.3c-1.6-0.8-2.5-3.3-2.9-2.6c-0.4,0.8-1.9,2.4-3.1,2.3c-1.2-0.1-4.5-5-5.1-6.7
							c-0.6-1.7,0.9-3.1,1.6-3c0.7,0.1,2.6,5.3,5.2,5.3c2.6,0,2.9,1.1,4.7,2.1c1.9,1,9.6-1.1,10.4,1.3c0.8,2.3,3.3,6.3,4.9,5.6
							c1.6-0.6,1.3,2.3,2.5,5.9c1.2,3.6,3.4,11.8,4.4,12.1c1,0.3,4-4.4,4-7c0.1-2.6,0-4.3,2.4-6.2c2.3-1.9,5.2-5.7,7.2-6.7
							c2-0.9,4.8,3.6,4.9,5.9c0.1,2.3,2.6,1.6,3.2,4c0.6,2.4,2.2,10.5,3.3,12.9c1.1,2.4,4.9,3.2,3.7,1.1c-1.2-2-4.2-9.4-3-11
							c1.2-1.6,5,5.4,7.1,4.4c2.1-1,2.1-7.4,0.5-10c-1.5-2.6-0.6-6.7,1.4-7.4c2-0.7,9.1-1.5,10.9-4c1.8-2.5,5.4-7.3,4.4-10
							c-1-2.8-5.3-8.7-3.2-10.8c2.1-2.1,6.9-1,7.7,1.8c0.8,2.8,3.2,4.9,4.2,3.6c1-1.2-0.4-7.8,2.1-10c2.5-2.2,9.6-8.1,10.4-11.1
							c0.9-3,0.8-8.8-1.1-10c-1.9-1.2-3-2.6-2.2-3.8c0.8-1.2,4.8-7.7,10.4-7c5.6,0.7,6.9,1.8,9.3,0.9c2.4-0.9,2.7-5,6-4.9
							c3.3,0.1,7.2-3.4,7.5-2c0.3,1.4-2.9,3.9-4.8,6c-1.9,2.1-5.4,6-5.3,10.2c0.1,4.1,1.2,4.5,2.4,4.2c1.2-0.4,5-8.6,5.5-10.9
							c0.5-2.3,3-5.5,5.6-5.2c2.6,0.3,11.4-2.8,12.8-4.5c1.4-1.7-1.6-4.9,0.2-5.2c1.9-0.2,7.3,3.1,9.6,2.1c2.3-1.1-2.1-5.5-4.2-6
							c-2.1-0.5-10.4-4.1-12-3.4c-1.6,0.7-5.6-0.2-7.3-1.3c-1.7-1.1-7-2.5-10.4-2.1c-3.4,0.4-4.9-2.5-7.4-3.1
							c-2.5-0.6-10.1-2.7-13.1-1.4c-2.9,1.3-7.6,1.8-9.4,1.6c-1.8-0.3-4.2-2.9-5.8-4.5c-1.5-1.5-8.2-1.3-10.2-1.2
							c-2,0.1-6.9-1.1-9.6-0.2c-2.7,0.9-8.2,0.9-6.3,0c1.9-0.9,8.9-3.8,9-5.9c0.1-2.2-2.4-3.4-5.5-3.3c-3,0.1-7-1.9-8.6-0.4
							c-1.7,1.6-8.4,2.2-11.6,4.3c-3.2,2.1-2.1,3.9-4.7,4.5c-2.6,0.6-6.5,2.1-6.2,4.9c0.4,2.7-3.5,1.2-5.6,2.9
							c-2,1.7-0.2,5.5-2.3,7.3c-2.1,1.8-5.1,1.6-4.1,0.6c1-1,3.5-3.3,3.2-6.3c-0.3-3,1-7.1-1.6-7.5c-2.6-0.5-4.5,2.6-4.4,4.6
							c0.1,2,1.6,5.8,0.9,6.4c-0.7,0.6-2.6-2.1-6.8-3c-4.2-1-3.8,2.3-5.7,2.6c-1.9,0.3-6.5-0.1-9.8,2c-3.3,2.1-4.3,1.9-6.2,2.5
							c-2,0.6-3.7,3.3-5.7,3.9c-2,0.6-3.5,1.7-4.5-0.3c-1-2-4.3-5.2-2.8-4.7c1.6,0.5,8.8,1.4,9.2-0.1c0.4-1.4-7-5.3-8.2-6
							c-1.2-0.7-5.1-4.1-9-3.5c-3.9,0.7-10.7,3.9-12.6,6.9c-2,3.1-5.7,9.3-7.8,10.6c-2.1,1.3-4,4.2-3.6,6.8c0.4,2.6,2.4,4.3,3.5,3.8
							c1.1-0.6,2.9-3.4,3.4-2.6c0.4,0.8,1.2,4.1,1.9,5.7c0.7,1.6,1.5,1.7,2.9,0.7c1.5-1,2.1-5.3,2-7.4c-0.1-2.1-0.1-6.6,2.3-8.2
							c2.4-1.6,3.7-5.3,5.4-4.5c1.6,0.8-0.4,3.3-1.3,5.5c-0.9,2.3-1.8,6.3-0.4,6.3c1.3,0.1,6.9-1.3,7.1,0c0.2,1.3-6,1.3-5.7,3.8
							c0.2,2.5-1.7,3.3-3,4.6c-1.3,1.3-6.9,5.1-9.9,4.6c-3-0.5-7.2-0.3-9.1,2.1c-1.9,2.4-3.2,5.1-5.7,6.7
							C187.5,321.8,188.7,328.4,188.4,329.4z"/>
						<path class="st4" d="M185,318.1c2.3,0.8,6.8-3,6.9-4.7c0.1-1.7-2.7-3.6-3.2-5.3c-0.5-1.8-0.3-4.1-1.1-5.3
							c-0.9-1.2-4.9,0.1-4.9,1.5c0.1,1.4,0.8,2.6,1.9,4.5C185.7,310.5,183.9,317.7,185,318.1z"/>
						<path class="st4" d="M179.1,315.8c2,1.3,4-1.5,4-3.7c0-2.1,0.1-4.3-1.5-4.3C180.1,307.9,176.9,314.4,179.1,315.8z"/>
						<path class="st4" d="M300.5,386.6c0,0,5.9,10.7,8.4,12.1c2.5,1.4,3.7-1.2,2.5-3.6C310.3,392.7,300.6,385.3,300.5,386.6z"/>
						<path class="st4" d="M318.6,389.5c-1.4,2-1.6,6.5,0.2,7.3c1.8,0.8,4.3,3.6,5.7-0.9c1.4-4.6,2.7-11.3,1-11.8
							C323.9,383.6,319.7,388.1,318.6,389.5z"/>
						<path class="st4" d="M330.1,367.2c-2.2-0.3-2.6,4.4-1,7.5c1.6,3.1,1.1,6.4,2.4,8.3c1.3,1.9,3.9-0.6,2.6-2.9
							C332.9,377.9,331.3,367.3,330.1,367.2z"/>
						<path class="st4" d="M330.5,416.9c-1.2,2.2-4.5,2.9-7.7,4.8c-3.2,1.9-1.9,4.9-0.8,10.8c1.1,6-0.4,11.3,1.7,10.2
							c2.1-1.1,9.1-5.4,14-5.5c5-0.1,11.1,7,15.5,9.4c4.3,2.4,8.2,2.3,10.2-1.2c2-3.6,6-12,4.2-15.6c-1.8-3.7-7.5-8.1-8.6-12
							c-1.1-3.9-3-9.9-4-9.9c-1,0-0.6,8.3-3,7.8c-2.4-0.5-3.9-3.7-5-5.2c-1.1-1.5-6.2,1.4-8.7,2.3
							C335.7,413.6,333,412.1,330.5,416.9z"/>
						<path class="st4" d="M340.1,392.8c0.5,2.1,2,6.1,5.9,6.7c3.9,0.7,4,1.3,6.6,3.2c2.6,1.9,5.4,1,8.8,2.7c3.3,1.6,1.1-3.6-3-6.3
							c-4.1-2.7-9.2-4.6-11.4-5.1C344.7,393.4,340.1,392.8,340.1,392.8z"/>
					</g>
				</g>
			</g>
			<path class="st6" d="M201.1,234.4c8.7,14.8,13.7,32,13.7,50.4c0,55-44.6,99.6-99.6,99.6c-9.5,0-18.7-1.3-27.4-3.8
				c17.3,29.4,49.3,49.2,85.9,49.2c55,0,99.6-44.6,99.6-99.6C273.3,284.7,242.7,246.3,201.1,234.4z"/>
			<path class="st7" d="M74.5,320.4c19.5,2.3,45.3-7,67.5-26.3c22.4-19.4,35.3-43.7,35.6-63.4c-1.3-0.1-2.7-0.1-4-0.1
				C121.9,230.6,79.4,270,74.5,320.4z"/>
		</g>
		<g>
			<g>
				<path class="st8" d="M333.3,424.3c0,3.2-2.6,5.8-5.8,5.8H173.6c-3.2,0-5.8-2.6-5.8-5.8V213.6c0-3.2,2.6-5.8,5.8-5.8h153.9
					c3.2,0,5.8,2.6,5.8,5.8V424.3z"/>
				<path class="st7" d="M173.6,207.8c-3.2,0-5.8,2.6-5.8,5.8v70.7c26.2-5,50.2-23.4,62-51c3.6-8.4,5.8-17,6.7-25.5H173.6z"/>
				<rect x="181.2" y="221" class="st9" width="138.7" height="195.9"/>
				<path class="st3" d="M295.3,216h-34.1c1.7-2.2,2.7-5,2.7-8c0-7.4-6-13.3-13.3-13.3s-13.3,6-13.3,13.3c0,3,1,5.8,2.7,8h-34.1
					c-2.5,0-4.6,2.1-4.6,4.6s2.1,4.6,4.6,4.6h89.5c2.5,0,4.6-2.1,4.6-4.6S297.9,216,295.3,216z M250.6,202.2c3.2,0,5.8,2.6,5.8,5.8
					s-2.6,5.8-5.8,5.8c-3.2,0-5.8-2.6-5.8-5.8S247.3,202.2,250.6,202.2z"/>
			</g>
			<g>
				<g>
					<circle class="st10" cx="250.6" cy="264.4" r="25.7"/>
					<polygon class="st9" points="263.9,259.9 255.1,259.9 255.1,251.1 246,251.1 246,259.9 237.2,259.9 237.2,269 246,269
						246,277.8 255.1,277.8 255.1,269 263.9,269 					"/>
				</g>
				<g>
					<g>
						<g>
							<g>
								<rect x="198.7" y="305.6" class="st10" width="103.6" height="2.6"/>
							</g>
							<g>
								<rect x="198.7" y="318.7" class="st10" width="103.6" height="2.6"/>
							</g>
						</g>
						<g>
							<g>
								<rect x="198.7" y="331.9" class="st10" width="103.6" height="2.6"/>
							</g>
							<g>
								<rect x="198.7" y="345" class="st10" width="103.6" height="2.6"/>
							</g>
						</g>
					</g>
					<g>
						<g>
							<g>
								<rect x="198.7" y="358.2" class="st10" width="103.6" height="2.6"/>
							</g>
							<g>
								<rect x="198.7" y="371.4" class="st10" width="103.6" height="2.6"/>
							</g>
						</g>
						<g>
							<g>
								<rect x="198.7" y="384.5" class="st10" width="103.6" height="2.6"/>
							</g>
							<g>
								<rect x="198.7" y="397.7" class="st10" width="103.6" height="2.6"/>
							</g>
						</g>
					</g>
				</g>
			</g>
			<path class="st6" d="M222,430.1h105.5c3.2,0,5.8-2.6,5.8-5.8V213.6c0-3.2-2.6-5.8-5.8-5.8h-10.1
				C324.9,346.6,260.3,406.8,222,430.1z"/>
		</g>
		<g>
			<g>
				<path class="st11" d="M391.1,366.5L391.1,366.5c1.9-4.3,3-9.1,3-14.2c0-19.1-15.4-34.5-34.5-34.5c-13.4,0-25,7.7-30.7,18.8
					c-5.7-11.2-17.3-18.8-30.7-18.8c-19.1,0-34.5,15.4-34.5,34.5c0,5.1,1.1,9.9,3.1,14.2l0,0c0,0,0.1,0.1,0.2,0.4
					c0.3,0.7,0.7,1.5,1.1,2.2c4.9,9.2,23.8,40.9,60.9,60.6c37.1-19.7,56-51.4,60.9-60.6c0.4-0.7,0.8-1.4,1.1-2.2
					C391,366.7,391.1,366.5,391.1,366.5z"/>
				<g class="st12">
					<path class="st13" d="M394.1,352.4c0-19.1-15.4-34.5-34.5-34.5c-3.1,0-6,0.4-8.8,1.1c14.8,3.9,25.7,17.4,25.7,33.3
						c0,5.1-1.1,9.9-3.1,14.2l0,0c0,0-0.1,0.1-0.2,0.4c-0.3,0.7-0.7,1.5-1.1,2.2c-4.5,8.4-20.7,35.8-52,55.5
						c2.8,1.8,5.8,3.5,8.8,5.1c37.1-19.7,56-51.4,60.9-60.6c0.4-0.7,0.8-1.4,1.1-2.2c0.1-0.3,0.2-0.4,0.2-0.4l0,0
						C393,362.2,394.1,357.4,394.1,352.4z"/>
				</g>
				<path class="st14" d="M300.6,352.8c8.6-10,13.9-20.9,15.4-29.9c-5.2-3.2-11.3-5-17.8-5c-19.1,0-34.5,15.4-34.5,34.5
					c0,5.1,1.1,9.9,3.1,14.2l0,0c0,0,0.1,0.1,0.2,0.4c0.3,0.7,0.7,1.5,1.1,2.2c0.6,1.1,1.3,2.4,2.3,4.1
					C279.7,371.2,291,363.9,300.6,352.8z"/>
			</g>
			<path class="st8" d="M397.7,364.2c-13.7,0-27.4,0-41.2,0c-3.7,0-7.4-1.1-9.9,2c-3.6,4.5-7.2,9-10.8,13.5
				c-5-15.4-10-30.8-14.9-46.2c-0.6-1.8-3-1.8-3.6,0c-3.5,10.7-7,21.4-10.6,32.2c-15.6,0-31.1,0-46.7,0c-2.4,0-2.4,3.8,0,3.8
				c16,0,32,0,48.1,0c0.9,0,1.5-0.6,1.8-1.4c3.1-9.3,6.1-18.7,9.2-28c4.7,14.7,9.5,29.3,14.2,44c0.4,1.2,2.2,2,3.1,0.8
				c4-5,8-10,12.1-15.1c0.5-0.6,1-1.3,1.5-1.9c0,0,0,0,0,0c2.7,0,5.3,0,8,0c13.2,0,26.4,0,39.6,0C400.2,368,400.2,364.2,397.7,364.2
				z"/>
		</g>
		<g>
			<path class="st15" d="M179.7,377.4c-0.7-2.9-0.4-5.2,0-7.3c0.5-2.1,1.3-4,2.4-5.7c1.1-1.7,2.5-3.2,4.3-4.5
				c1.8-1.2,3.8-2.4,6.7-2.9c0.7,2.9,0.5,5.2,0,7.3c-0.5,2.1-1.3,4-2.5,5.7c-1.1,1.7-2.5,3.2-4.3,4.5
				C184.7,375.8,182.7,376.9,179.7,377.4z"/>
			<g>
				<path class="st16" d="M205.8,377.9c-11.9-7.1-21.9,1.5-25.4,5c-3.4-3.5-13.5-12.3-25.3-5c-16.4,10.1-8.3,48.8,6.8,51.9
					c9.5,1.9,15.9-5.2,18.5-9c2.7,3.8,9.1,10.9,18.5,9C214.1,426.8,222.8,388,205.8,377.9z"/>
				<g>
					<path class="st17" d="M168.3,361.9c7,5.6,11.4,14.9,11,23.8c-0.1,1.5,2.3,1.5,2.3,0c0.3-6.6-1.8-13-5.5-18.5
						c-1.7-2.5-3.8-5.1-6.2-7C168.8,359.3,167.1,361,168.3,361.9L168.3,361.9z"/>
				</g>
				<path class="st11" d="M205.8,377.9c-11.9-7.1-21.9,1.5-25.4,5c-3.4-3.5-13.5-12.3-25.3-5c-16.4,10.1-8.3,48.8,6.8,51.9
					c9.5,1.9,15.9-5.2,18.5-9c2.7,3.8,9.1,10.9,18.5,9C214.1,426.8,222.8,388,205.8,377.9z"/>
				<path class="st6" d="M205.8,377.9c-2.8-1.7-5.4-2.5-7.9-2.7c-3.8,13.9-15.1,43-45.1,47.4c2.5,3.8,5.7,6.4,9.2,7.1
					c9.5,1.9,15.9-5.2,18.5-9c2.7,3.8,9.1,10.9,18.5,9C214.1,426.8,222.8,388,205.8,377.9z"/>
				<path class="st14" d="M160.6,388.1c4-4,6.7-8.4,8-12.4c-4-1-8.6-0.8-13.5,2.3c-5.8,3.6-8.6,10.8-9,18.7
					C150.6,395.7,155.9,392.7,160.6,388.1z"/>
			</g>
		</g>
		<g>
			<g>
				<path class="st10" d="M246.7,427c0,1.7-1.4,3-3,3h-33.5c-1.7,0-3-1.4-3-3v-45.7c0-1.7,1.4-3,3-3h33.5c1.7,0,3,1.4,3,3V427z"/>
				<g>
					<path class="st3" d="M239.2,376.5c0,1-0.8,1.9-1.9,1.9h-20.7c-1,0-1.9-0.8-1.9-1.9v-10.2c0-1,0.8-1.9,1.9-1.9h20.7
						c1,0,1.9,0.8,1.9,1.9V376.5z"/>
					<g>
						<path class="st15" d="M217,377.2h-0.1c-0.4,0-0.8-0.4-0.8-0.8v-10.1c0-0.4,0.4-0.8,0.8-0.8h0.1c0.4,0,0.8,0.4,0.8,0.8v10.1
							C217.8,376.9,217.4,377.2,217,377.2z"/>
						<path class="st15" d="M222,377.2h-0.1c-0.4,0-0.8-0.4-0.8-0.8v-10.1c0-0.4,0.4-0.8,0.8-0.8h0.1c0.4,0,0.8,0.4,0.8,0.8v10.1
							C222.8,376.9,222.5,377.2,222,377.2z"/>
						<path class="st15" d="M227,377.2h-0.1c-0.4,0-0.8-0.4-0.8-0.8v-10.1c0-0.4,0.4-0.8,0.8-0.8h0.1c0.4,0,0.8,0.4,0.8,0.8v10.1
							C227.8,376.9,227.5,377.2,227,377.2z"/>
						<path class="st15" d="M232,377.2h-0.1c-0.4,0-0.8-0.4-0.8-0.8v-10.1c0-0.4,0.4-0.8,0.8-0.8h0.1c0.4,0,0.8,0.4,0.8,0.8v10.1
							C232.8,376.9,232.5,377.2,232,377.2z"/>
						<path class="st15" d="M237,377.2h-0.1c-0.4,0-0.8-0.4-0.8-0.8v-10.1c0-0.4,0.4-0.8,0.8-0.8h0.1c0.4,0,0.8,0.4,0.8,0.8v10.1
							C237.8,376.9,237.5,377.2,237,377.2z"/>
					</g>
				</g>
				<g>
					<rect x="207.2" y="391" class="st3" width="29.7" height="24.6"/>
					<g>
						<rect x="210.7" y="396.4" class="st18" width="22.1" height="2"/>
						<rect x="210.7" y="402.4" class="st18" width="22.1" height="2"/>
						<rect x="210.7" y="408.4" class="st18" width="22.1" height="2"/>
					</g>
				</g>
			</g>
			<path class="st6" d="M243.7,378.3h-6.8c1.7,0,3,1.4,3,3V427c0,1.7-1.4,3-3,3h6.8c1.7,0,3-1.4,3-3v-45.7
				C246.7,379.7,245.4,378.3,243.7,378.3z"/>
			<path class="st7" d="M207.2,381.3v24.4c0.2,0,0.4,0,0.6,0c11.8,0,21.4-10.6,21.4-23.6c0-1.3-0.1-2.6-0.3-3.8h-18.8
				C208.6,378.3,207.2,379.7,207.2,381.3z"/>
		</g>
		<g>
			<g>
				<g>
					<path class="st3" d="M339.6,262c0,0,0-0.1,0-0.1c0,0,0,0,0,0C339.6,261.9,339.6,262,339.6,262z"/>
					<path class="st3" d="M417.5,287.2c4.1-7.8,6.4-16.7,7.6-25.4c1.1-7.9,1.4-16.1-0.1-24c-0.6-3.1-1.4-6.1-3-8.9
						c-2.1-3.7-5.4-6.8-9.3-8.4c-5.1-2-11.6-1.7-16.5,0.8c-1.2,0.6-1.9,1.9-1.4,3.2c0.5,1.2,2,2,3.2,1.4c1.1-0.5,2.2-0.9,3.3-1.2
						c-0.1,0,0.5-0.1,0.6-0.1c0.3-0.1,0.6-0.1,0.9-0.2c0.7-0.1,1.4-0.2,2.1-0.2c0.3,0,0.7,0,1,0c0.1,0,0.1,0,0.2,0
						c0.1,0,0.4,0,0.4,0c0.8,0.1,1.6,0.2,2.4,0.4c1.1,0.3,3,1,4,1.7c1.7,1.1,2.9,2.4,4,4c0.3,0.4,0.5,0.8,0.8,1.2c0,0,0,0.1,0.1,0.1
						c0,0,0,0.1,0.1,0.2c0.3,0.5,0.5,1.1,0.7,1.7c0.2,0.6,0.4,1.2,0.6,1.8c0.1,0.3,0.2,0.6,0.3,1c0,0.1,0.1,0.3,0.1,0.4
						c0,0.1,0.1,0.3,0.1,0.4c1.5,7.2,1.5,14.4,0.7,21.6c-0.9,8.2-2.7,16.1-6.1,23.6c-1.8,4-3.8,7.3-6.7,10.6c-2.4,2.7-5.4,5-8.7,6.3
						c-2.9,1.1-6.4,1.5-9.4,1.3c-3.8-0.3-7.3-1.2-10.7-2.4c-7.7-2.9-14.5-7.3-20.8-12.5c-5.8-4.8-11-10-15.1-16.5
						c-0.4-0.6-0.8-1.3-1.2-1.9c0-0.1-0.1-0.1-0.1-0.2c0-0.1-0.2-0.3-0.2-0.3c-0.2-0.3-0.3-0.7-0.5-1c-0.5-1.1-1-2.3-1.4-3.5
						c0-0.1,0-0.1-0.1-0.2c0.1,0.3,0,0,0-0.1c0,0,0,0,0,0c0-0.1,0-0.1,0-0.2c0,0.1,0,0.1,0,0.2c-0.1-0.4-0.2-0.9-0.2-1.3
						c-0.1-1-0.2-2.2-0.2-3.1c0.1-2,0.4-3.3,1.2-5c0.6-1.2,1.8-2.9,2.8-3.8c0.7-0.7,2.3-1.9,3.5-2.6c0.1-0.1,0.2-0.1,0.3-0.2
						c0,0,0.1,0,0.1-0.1c0,0,0,0,0,0c0.3-0.1,0.5-0.3,0.7-0.4c0.4-0.2,0.9-0.4,1.3-0.6c0.4-0.2,0.9-0.3,1.3-0.5
						c1.3-0.4,1.9-2.1,1.4-3.2c-0.5-1.4-1.9-1.8-3.2-1.4c-4.4,1.3-8.7,4.4-11.3,8.1c-4.5,6.5-3.9,14.6-0.2,21.3
						c3.8,6.9,9.3,12.9,15.1,18.1c6.6,5.9,14.1,11,22.2,14.5c7.5,3.2,16,5,24,2.9c0,0.2,0.1,0.4,0.2,0.5c0.3,0.6,0.6,1.2,0.9,1.8
						c0.3,0.8,0.7,1.5,1,2.3c0.2,0.4,0.4,0.9,0.6,1.3c0.1,0.3,0.2,0.5,0.4,0.8c0.1,0.1,0.1,0.3,0.2,0.4c0,0,0,0.1,0,0.1
						c2.6,6.2,5,12.6,7.1,19c2.9,8.7,5.3,17.6,7.1,26.7c1.9,9.4,3.5,19.2,3,28.9c-0.4,7.1-2.1,14.3-5.5,20.5
						c-3,5.3-7.1,9.6-12.2,12.7c-2.6,1.6-4.9,2.6-7.7,3.5c-1.4,0.5-2.9,0.8-4.3,1.1c-0.7,0.2-1.5,0.3-2.2,0.4
						c-0.2,0-0.3,0.1-0.5,0.1c0,0-0.1,0-0.1,0c0,0,0,0,0,0c-0.4,0.1-0.8,0.1-1.2,0.1c-7.2,0.7-14.6-0.4-21.5-2.6
						c-6.6-2.1-12.8-5.4-18.4-9.6c0,0-0.1-0.1-0.2-0.1c-0.1-0.1-0.2-0.1-0.3-0.2c-0.2-0.2-0.5-0.4-0.7-0.6c-0.5-0.4-1-0.8-1.5-1.3
						c-0.8-0.7-1.6-1.4-2.3-2.1c-0.9-0.9-1.8-1.8-2.7-2.8c-0.1-0.1-0.2-0.3-0.3-0.4c-0.8-1.1-2.7-0.9-3.5,0c-1,1-0.8,2.5,0,3.5
						c1.7,2.1,3.7,4,5.8,5.7c5.2,4.5,11.1,8.1,17.4,10.7c13.5,5.7,29.1,7.1,42.7,1c12.9-5.8,21-18.1,23.5-31.8
						c1.7-9.5,0.9-19-0.5-28.4c-1.5-10-3.8-19.8-6.6-29.5c-3.4-11.3-7.4-22.6-12.5-33.3c0-0.1-0.1-0.2-0.1-0.3
						C409.5,299.4,414.2,293.5,417.5,287.2z"/>
				</g>
				<path class="st4" d="M358.9,239c0.5,1.2,0,2.6-1.2,3.1l-8.1,3.6c-1.2,0.5-2.6,0-3.1-1.2l-1.2-2.8c-0.5-1.2,0-2.6,1.2-3.1
					l8.1-3.6c1.2-0.5,2.6,0,3.1,1.2L358.9,239z"/>
				<path class="st4" d="M401.4,223.7c0.5,1.2-0.1,2.5-1.3,3l-8.3,3.2c-1.2,0.5-2.5-0.1-3-1.3l-1.1-2.9c-0.5-1.2,0.1-2.5,1.3-3
					l8.3-3.2c1.2-0.5,2.5,0.1,3,1.3L401.4,223.7z"/>
			</g>
			<g>
				<path class="st10" d="M388.7,297.6C388.4,297.6,388.5,297.6,388.7,297.6L388.7,297.6z"/>
				<path class="st4" d="M420.9,265.7c-2.4-0.5-5.7,0.7-6.2,3.5c-0.5,2.8-1.2,5.5-2.1,8.2c-0.4,1.3-0.9,2.5-1.3,3.7
					c0,0.1-0.1,0.2-0.2,0.4c-0.1,0.2-0.2,0.5-0.2,0.6c-0.3,0.7-0.6,1.4-1,2.1c-0.7,1.4-1.4,2.7-2.2,4c-0.4,0.6-0.8,1.3-1.3,1.9
					c-0.2,0.3-0.4,0.5-0.6,0.8c0.8-1.3,0,0-0.3,0.3c-1,1.2-2.1,2.3-3.3,3.3c-0.1,0.1-0.2,0.2-0.3,0.3c-0.2,0.1-0.4,0.3-0.6,0.4
					c-0.7,0.5-1.4,0.9-2.2,1.3c-0.2,0.1-0.5,0.2-0.7,0.4c0,0,0.1,0,0.1,0c-0.1,0-0.1,0-0.2,0.1c-0.1,0-0.1,0.1-0.2,0.1
					c-0.1,0.1-0.2,0.1-0.2,0.1c-0.8,0.3-1.5,0.5-2.3,0.7c-0.3,0.1-0.7,0.1-1,0.2c-0.1,0-0.1,0-0.2,0c-0.9,0.1-1.8,0.1-2.7,0.1
					c-0.8,0-1.6-0.1-2.4-0.1c-0.2,0-0.5-0.1-0.7-0.1c0.1,0,0.3,0.1,0.5,0.1c-0.4-0.1-0.8-0.1-1.2-0.2c-1.7-0.3-3.5-0.7-5.2-1.3
					c-1.6-0.5-3.1-1-4.7-1.6c-0.1,0-0.2-0.1-0.3-0.1c-0.3-0.2-0.6-0.3-0.9-0.4c-0.8-0.4-1.6-0.7-2.3-1.1c-3.6-1.8-7.3-3.8-10.5-6.2
					c-2.1-1.5-5.7-0.4-6.8,1.8c-1.4,2.6-0.5,5.2,1.8,6.8c2.9,2.1,6.1,3.9,9.3,5.6c6.8,3.5,14,6.2,21.6,6.8c2.6,0.2,5.2,0,7.7-0.5
					c0.7,1.8,1.5,3.6,2.2,5.4c2.6,6.5,5.1,13.1,7.2,19.7c1.2,3.6,2.2,7.2,3.1,10.9c0.6,2.6,3.7,4.3,6.2,3.5c2.7-0.9,4.1-3.4,3.5-6.2
					c-1.6-6.9-3.9-13.6-6.3-20.2c-2.1-5.7-4.3-11.3-6.6-17c0,0,0,0,0,0c1.5-1,2.8-2.1,4.1-3.3c5-4.8,8.2-11.1,10.6-17.5
					c1.3-3.5,2.4-7.1,3-10.8C424.9,269.3,423.8,266.4,420.9,265.7z"/>
				<path class="st10" d="M398.4,296.7c0,0,0.1,0,0.1-0.1c-0.6,0.1-0.7,0.2-0.5,0.2c0,0,0.1,0,0.1,0
					C398.2,296.8,398.3,296.8,398.4,296.7z"/>
			</g>
			<g>
				<circle class="st10" cx="333.2" cy="406.1" r="11.1"/>
				<circle class="st4" cx="333.2" cy="406.1" r="6.4"/>
			</g>
		</g>
	</g>
	<g>
		<path class="st11" d="M319.6,173.1L319.6,173.1c0.2-0.5,0.4-1.1,0.4-1.6c0-2.2-1.8-4-4-4c-1.5,0-2.9,0.9-3.5,2.2
			c-0.7-1.3-2-2.2-3.5-2.2c-2.2,0-4,1.8-4,4c0,0.6,0.1,1.1,0.4,1.6l0,0c0,0,0,0,0,0c0,0.1,0.1,0.2,0.1,0.3c0.6,1.1,2.7,4.7,7,7
			c4.3-2.3,6.5-5.9,7-7C319.4,173.3,319.5,173.2,319.6,173.1C319.5,173.1,319.6,173.1,319.6,173.1z"/>
		<path class="st11" d="M392.8,253.4L392.8,253.4c0.2-0.4,0.3-0.8,0.3-1.2c0-1.6-1.3-2.9-2.9-2.9c-1.1,0-2.1,0.6-2.6,1.6
			c-0.5-0.9-1.5-1.6-2.6-1.6c-1.6,0-2.9,1.3-2.9,2.9c0,0.4,0.1,0.8,0.3,1.2l0,0c0,0,0,0,0,0c0,0.1,0.1,0.1,0.1,0.2
			c0.4,0.8,2,3.5,5.2,5.1c3.1-1.7,4.7-4.4,5.2-5.1C392.7,253.5,392.7,253.5,392.8,253.4C392.8,253.4,392.8,253.4,392.8,253.4z"/>
		<path class="st11" d="M202.4,179.9L202.4,179.9c0.1-0.3,0.2-0.5,0.2-0.8c0-1.1-0.9-2-2-2c-0.8,0-1.5,0.5-1.8,1.1
			c-0.3-0.7-1-1.1-1.8-1.1c-1.1,0-2,0.9-2,2c0,0.3,0.1,0.6,0.2,0.8l0,0c0,0,0,0,0,0c0,0,0,0.1,0.1,0.1c0.3,0.5,1.4,2.4,3.6,3.6
			c2.2-1.2,3.3-3,3.6-3.6C202.4,180,202.4,180,202.4,179.9C202.4,179.9,202.4,179.9,202.4,179.9z"/>
		<path class="st11" d="M90.1,246.2L90.1,246.2c0.2-0.4,0.3-0.8,0.3-1.2c0-1.6-1.3-2.9-2.9-2.9c-1.1,0-2.1,0.6-2.6,1.6
			c-0.5-0.9-1.5-1.6-2.6-1.6c-1.6,0-2.9,1.3-2.9,2.9c0,0.4,0.1,0.8,0.3,1.2l0,0c0,0,0,0,0,0c0,0.1,0.1,0.1,0.1,0.2
			c0.4,0.8,2,3.5,5.2,5.1c3.1-1.7,4.7-4.4,5.2-5.1C90,246.3,90,246.3,90.1,246.2C90.1,246.2,90.1,246.2,90.1,246.2z"/>
	</g>
</g>
</svg>
